<?xml version="1.0" encoding="utf-8"?>
<!-- Generator: Adobe Illustrator 19.0.0, SVG Export Plug-In . SVG Version: 6.00 Build 0)  -->
<svg version="1.0" id="Layer_1" xmlns="http://www.w3.org/2000/svg" xmlns:xlink="http://www.w3.org/1999/xlink" x="0px" y="0px"
	 viewBox="0 0 640 480" style="enable-background:new 0 0 640 480;" xml:space="preserve">
<style type="text/css">
	.st0{fill:#3B3A3C;}
</style>
<g id="XMLID_53_">
	<path id="XMLID_98_" class="st0" d="M261.5,223.3l0.3,1.2h6.1v-30.2l-39.6,0l-0.6,0.1h-1.3l-0.1,0c-9.9,0.8-19.1,5.3-25.9,12.5
		c-2.2,2.3-4.1,5-5.7,7.8V201l0,0v-2.5c0,0,0,0,0-0.1v-2.8c-0.1-0.8-0.7-1.4-1.5-1.4h-2.5c-0.8,0-1.5,0.7-1.5,1.5v0.4l0,0v75.1l0,0
		v0.2c0,0.8,0.7,1.5,1.5,1.5h2.5c0.8,0,1.4-0.6,1.5-1.4v-2.8c0,0,0-0.1,0-0.1v-16.2c2.4,4.2,5.5,8.1,9.3,11.2
		c6.6,5.5,15,8.8,23.7,9.2l3.5,0l0.2,0c9.9-0.8,19.1-5.3,25.9-12.5c2-2.1,3.7-4.4,5.2-7v14.9l0,3h0v0.2c0,0.8,0.7,1.5,1.5,1.5h2.5
		c0.7,0,1.2-0.5,1.4-1.1v-40.8h-22.5l0,0h-0.3c-0.8,0.1-1.4,0.7-1.4,1.5v2.5c0,0.8,0.7,1.5,1.5,1.5h0.2v0h17
		c-1.4,15.7-14.3,29-30.2,30.9v-67.6C245.8,200.7,257.7,210.3,261.5,223.3z M262.6,199.6v13c-1.9-3.1-4.2-5.9-6.9-8.3
		c-1.9-1.8-4-3.3-6.3-4.7H262.6z M226.7,267.3c-16.5-1.4-30-14.7-31.4-30.9h31.4V267.3z M226.7,231h-31.4
		c1.3-16.2,14.8-29.9,31.3-31.3h0.1V231z"/>
	<path id="XMLID_97_" class="st0" d="M190.4,285.8l76.3,0c0.7-0.1,1.3-0.6,1.3-1.3l0-2.3c0-0.7-0.5-1.2-1.1-1.3l-76.5,0
		c-0.7,0.1-1.2,0.7-1.2,1.3v2.4C189.2,285.2,189.7,285.7,190.4,285.8z"/>
	<path id="XMLID_96_" class="st0" d="M305.7,285.7l142.2,0c0.7-0.1,1.3-0.6,1.3-1.3V282c0-0.7-0.5-1.2-1.1-1.3l-142.3,0
		c-0.7,0.1-1.2,0.7-1.2,1.3v2.3C304.5,285,305,285.6,305.7,285.7z"/>
	<g id="XMLID_54_">
		<polygon id="XMLID_95_" class="st0" points="314.7,200.7 317.2,200.7 317.2,206.7 308.2,206.7 308.2,200.7 310.7,200.7 310.7,199 
			303.5,199 303.5,200.7 306,200.7 306,214.6 303.5,214.6 303.5,216.2 310.7,216.2 310.7,214.6 308.2,214.6 308.2,208.4 
			317.2,208.4 317.2,214.6 314.7,214.6 314.7,216.2 321.9,216.2 321.9,214.6 319.4,214.6 319.4,200.7 321.9,200.7 321.9,199 
			314.7,199 		"/>
		<path id="XMLID_92_" class="st0" d="M330.1,216.5c1.2,0,2.2-0.2,3-0.5c0.6-0.2,1.2-0.6,1.7-1.1l0,1.4h3.9v-1.6h-1.9v-8.2
			c0-1.3-0.4-2.4-1.2-3.1c-0.8-0.7-1.9-1.1-3.4-1.1h-1.1c-1.4,0-2.6,0.3-3.4,0.9c-0.8,0.6-1.2,1.5-1.2,2.6v0.7h2.1v-0.5
			c0-0.8,0.3-2,2.6-2h0.8c0.9,0,1.6,0.2,2,0.6c0.4,0.4,0.6,1.1,0.6,2.2v1.4h-3.4c-1.7,0-3,0.3-3.9,1c-0.8,0.6-1.3,1.6-1.3,2.9v0.8
			c0,1.1,0.3,2,1,2.7C327.8,216.1,328.8,216.5,330.1,216.5z M330.6,214.9c-0.8,0-1.4-0.2-1.7-0.6c-0.4-0.4-0.6-1-0.6-1.6v-0.5
			c0-0.8,0.2-1.4,0.8-1.8c0.5-0.4,1.5-0.6,2.8-0.6c0.8,0,1.8,0,2.9,0.1v1.5c-0.1,0.5-0.2,1-0.4,1.4c-0.2,0.4-0.5,0.8-0.8,1.1
			c-0.3,0.3-0.7,0.6-1.2,0.7C331.8,214.8,331.3,214.9,330.6,214.9z"/>
		<polygon id="XMLID_91_" class="st0" points="348.2,214.6 346.2,214.6 346.2,199 341.9,199 341.9,200.6 344,200.6 344,214.6 
			341.9,214.6 341.9,216.2 348.2,216.2 		"/>
		<path id="XMLID_90_" class="st0" d="M353.8,200.9h1.3c0.2,0,0.4,0,0.5-0.1c0.1-0.1,0.2-0.3,0.2-0.5v-1.1c0-0.2-0.1-0.4-0.2-0.5
			c-0.1-0.1-0.3-0.1-0.5-0.1h-1.3c-0.2,0-0.3,0-0.4,0.1c-0.1,0.1-0.2,0.3-0.2,0.5v1.1c0,0.2,0.1,0.4,0.2,0.5
			C353.5,200.9,353.6,200.9,353.8,200.9z"/>
		<polygon id="XMLID_89_" class="st0" points="357.6,214.6 355.5,214.6 355.5,202.6 351.2,202.6 351.2,204.2 353.4,204.2 
			353.4,214.6 351.2,214.6 351.2,216.2 357.6,216.2 		"/>
		<polygon id="XMLID_88_" class="st0" points="367.3,214.6 365.2,214.6 365.2,199 360.9,199 360.9,200.6 363.1,200.6 363.1,214.6 
			360.9,214.6 360.9,216.2 367.3,216.2 		"/>
		<path id="XMLID_85_" class="st0" d="M374.9,216.5c1.2,0,2.2-0.2,3-0.5c0.6-0.2,1.2-0.6,1.7-1.1l0,1.4h3.9v-1.6h-1.9v-8.2
			c0-1.3-0.4-2.4-1.2-3.1c-0.8-0.7-1.9-1.1-3.4-1.1H376c-1.5,0-2.6,0.3-3.4,0.9c-0.8,0.6-1.3,1.5-1.3,2.6v0.7h2.1v-0.5
			c0-0.8,0.3-2,2.6-2h0.8c0.9,0,1.6,0.2,2,0.6c0.4,0.4,0.6,1.1,0.6,2.2v1.4H376c-1.7,0-3,0.3-3.9,1c-0.8,0.6-1.3,1.6-1.3,2.9v0.8
			c0,1.1,0.3,2,1,2.7C372.6,216.1,373.6,216.5,374.9,216.5z M375.3,214.9c-0.8,0-1.4-0.2-1.8-0.6c-0.4-0.4-0.6-1-0.6-1.6v-0.5
			c0-0.8,0.2-1.4,0.8-1.8c0.5-0.4,1.5-0.6,2.8-0.6c0.8,0,1.8,0,2.9,0.1v1.5c-0.1,0.5-0.2,1-0.4,1.4c-0.2,0.4-0.5,0.8-0.8,1.1
			c-0.3,0.3-0.7,0.6-1.2,0.8C376.5,214.8,376,214.9,375.3,214.9z"/>
		<path id="XMLID_82_" class="st0" d="M393.9,220.4c1.8,0,3.1-0.3,3.9-1c0.8-0.7,1.3-1.8,1.3-3.3v-11.9h2v-1.6h-4.1v1.3
			c-0.5-0.4-1-0.8-1.7-1c-0.9-0.3-1.9-0.5-2.9-0.5c-0.8,0-1.5,0.2-2.1,0.4c-0.6,0.3-1.2,0.7-1.6,1.2c-0.4,0.5-0.8,1.2-1,1.9
			c-0.2,0.7-0.3,1.5-0.3,2.4v1.9c0,0.9,0.1,1.7,0.3,2.4c0.2,0.7,0.6,1.4,1,1.9c0.4,0.5,1,0.9,1.6,1.2c0.6,0.3,1.3,0.4,2.1,0.4
			c1.1,0,2-0.2,2.9-0.5c0.6-0.2,1.2-0.6,1.6-1v1.3c0,1-0.2,1.8-0.7,2.2c-0.5,0.4-1.3,0.7-2.4,0.7h-0.9c-1,0-1.7-0.1-2.1-0.4
			c-0.4-0.3-0.6-0.7-0.7-1.3l0-0.2h-0.9c-0.2,0-0.3,0-0.4,0c-0.3,0-0.5,0.1-0.8,0.5l-0.1,0.1l0,0.1c0.1,0.9,0.5,1.7,1.4,2.2
			c0.8,0.5,1.9,0.7,3.4,0.7H393.9z M396.9,209.2v0.3c0,0.8-0.1,1.5-0.2,2.1c-0.2,0.6-0.4,1.2-0.7,1.6c-0.3,0.4-0.6,0.8-0.9,1
			c-0.3,0.2-0.7,0.4-1.1,0.4h-1.2c-0.5,0-0.9-0.1-1.3-0.3c-0.4-0.2-0.8-0.5-1.1-0.9c-0.3-0.4-0.5-0.9-0.7-1.4
			c-0.2-0.6-0.2-1.2-0.2-1.8v-1.7c0-0.7,0.1-1.3,0.2-1.9c0.2-0.5,0.4-1,0.7-1.4c0.3-0.4,0.6-0.7,1-0.9c0.4-0.2,0.8-0.3,1.3-0.3h1.2
			c0.4,0,0.8,0.1,1.2,0.4c0.4,0.3,0.7,0.6,0.9,1.1c0.3,0.5,0.5,1,0.6,1.7C396.8,207.7,396.9,208.4,396.9,209.2z"/>
		<polygon id="XMLID_81_" class="st0" points="410.6,214.6 408.5,214.6 408.5,202.6 404.1,202.6 404.1,204.2 406.3,204.2 
			406.3,214.6 404.1,214.6 404.1,216.2 410.6,216.2 		"/>
		<path id="XMLID_80_" class="st0" d="M406.7,200.9h1.3c0.2,0,0.4,0,0.5-0.1c0.2-0.1,0.2-0.4,0.2-0.5v-1.1c0-0.1,0-0.3-0.2-0.5
			c-0.1-0.1-0.3-0.1-0.5-0.1h-1.3c-0.2,0-0.3,0-0.4,0.1c-0.2,0.1-0.2,0.4-0.2,0.5v1.1c0,0.1,0,0.3,0.2,0.5
			C406.4,200.9,406.6,200.9,406.7,200.9z"/>
		<path id="XMLID_79_" class="st0" d="M424.1,211.8c-0.1,0.4-0.1,0.7-0.3,1.1c-0.1,0.4-0.3,0.7-0.5,1c-0.2,0.3-0.5,0.5-0.8,0.7
			c-0.3,0.2-0.6,0.3-1,0.3h-1.1c-0.6,0-1.1-0.1-1.5-0.3c-0.4-0.2-0.8-0.5-1.1-0.9c-0.3-0.4-0.5-0.9-0.7-1.5
			c-0.2-0.6-0.3-1.2-0.3-1.9v-1.7c0-0.7,0.1-1.4,0.2-1.9c0.2-0.6,0.4-1,0.7-1.4c0.3-0.4,0.7-0.7,1.1-0.9c0.4-0.2,0.9-0.3,1.5-0.3
			c1.1,0,2,0.2,2.6,0.6c0.6,0.4,1,1.1,1.1,1.8v0.7h1.8v-4.6h-1.4v1.1c-0.4-0.3-0.9-0.6-1.4-0.8c-0.7-0.3-1.7-0.5-2.8-0.5
			c-1.8,0-3.1,0.6-4.1,1.6c-0.9,1.1-1.4,2.6-1.4,4.5v2c0,0.9,0.1,1.8,0.4,2.5c0.2,0.7,0.6,1.4,1.1,1.9c0.5,0.5,1,0.9,1.7,1.2
			c0.7,0.3,1.5,0.4,2.3,0.4h1.6c1.1,0,2-0.4,2.8-1.2c0.7-0.8,1.2-1.9,1.3-3.3l0-0.3h-1.9L424.1,211.8z"/>
		<path id="XMLID_78_" class="st0" d="M319.1,231.2v-5.9h-1.5v1.5c-0.5-0.5-1.2-0.8-2-1.2c-1.1-0.4-2.4-0.6-4-0.6
			c-1.2,0-2.3,0.2-3.2,0.5c-0.9,0.3-1.7,0.8-2.4,1.4c-0.6,0.6-1.2,1.4-1.5,2.3c-0.3,0.9-0.5,1.9-0.5,3v3.1c0,1.1,0.2,2.1,0.5,3
			c0.3,0.9,0.8,1.7,1.5,2.3c0.7,0.6,1.5,1.1,2.4,1.5c0.9,0.3,2,0.5,3.1,0.5c1.9,0,3.6-0.4,4.9-1.1c1.4-0.7,2.3-1.8,2.7-3.3l0-1.5
			H317v1c-0.4,1.1-1,1.9-1.9,2.4c-0.9,0.5-2.1,0.8-3.4,0.8c-1.7,0-3-0.5-3.9-1.5c-0.9-1-1.4-2.4-1.4-4.1v-3c0-1.7,0.5-3.1,1.4-4.1
			c0.9-1,2.2-1.5,4-1.5c0.7,0,1.3,0.1,1.9,0.2c0.6,0.1,1.1,0.4,1.6,0.6c0.5,0.3,0.9,0.6,1.2,1.1c0.3,0.4,0.6,0.9,0.7,1.5v1H319.1z"
			/>
		<path id="XMLID_75_" class="st0" d="M330.7,228.6h-1.4c-1.7,0-3.1,0.6-4,1.7c-0.9,1.1-1.4,2.6-1.4,4.5v1.8c0,1.9,0.5,3.4,1.4,4.5
			c0.9,1.1,2.3,1.7,4,1.7h1.4c1.7,0,3.1-0.6,4-1.7c0.9-1.1,1.4-2.6,1.4-4.5v-1.8c0-1.9-0.5-3.4-1.4-4.5
			C333.8,229.1,332.5,228.6,330.7,228.6z M334,234.9v1.5c0,1.4-0.3,2.6-0.9,3.4c-0.6,0.8-1.5,1.2-2.6,1.2h-0.9c-1.2,0-2-0.4-2.6-1.2
			c-0.6-0.8-0.9-2-0.9-3.4v-1.5c0-1.5,0.3-2.6,0.9-3.5c0.6-0.8,1.5-1.2,2.6-1.2h0.9c1.1,0,2,0.4,2.6,1.2
			C333.7,232.2,334,233.4,334,234.9z"/>
		<path id="XMLID_74_" class="st0" d="M385.9,242.5v-1.6h-2.1v-12.1h-4.2v1.6h2.1v7.3c0,0.5-0.1,0.9-0.3,1.3c-0.2,0.4-0.4,0.8-0.8,1
			c-0.3,0.3-0.7,0.5-1.2,0.7c-0.4,0.2-0.9,0.3-1.5,0.3c-0.9,0-1.5-0.2-1.9-0.7c-0.4-0.5-0.6-1.3-0.6-2.4v-9.2h-4.1v1.6h2v7.8
			c0,1.4,0.3,2.5,1,3.3c0.7,0.8,1.7,1.2,3.1,1.2c1,0,1.9-0.2,2.7-0.5c0.6-0.2,1.1-0.5,1.5-0.9v1.2H385.9z"/>
		<path id="XMLID_73_" class="st0" d="M341.8,240.9h-2.2v1.6h6.3v-1.6h-2v-7.3c0-0.5,0.1-0.9,0.3-1.3c0.2-0.4,0.4-0.8,0.7-1.1
			c0.3-0.3,0.7-0.5,1.2-0.7c0.5-0.2,1-0.2,1.5-0.2c0.8,0,1.4,0.2,1.8,0.7c0.4,0.5,0.6,1.3,0.6,2.3v7.6h-2.2v1.6h6.3v-1.6h-2v-7.9
			c0-1.4-0.3-2.5-1-3.2c-0.7-0.8-1.7-1.1-3.1-1.1c-0.9,0-1.8,0.1-2.6,0.4c-0.6,0.2-1.1,0.5-1.5,0.9v-1h-4.3v1.6h2.2V240.9z"/>
		<path id="XMLID_72_" class="st0" d="M366,235.1c-0.6-0.2-1.3-0.3-2-0.3c-0.7,0-1.4-0.1-1.9-0.2c-0.6-0.1-1-0.3-1.4-0.5
			c-0.3-0.2-0.5-0.6-0.5-1.2v-0.6c0-0.6,0.2-1.1,0.6-1.5c0.4-0.4,1.1-0.6,1.9-0.6c1.1,0,2,0.2,2.6,0.5c0.6,0.3,0.9,0.7,0.9,1.2v1.2
			h1.8v-4.3h-1.4v0.8c-0.4-0.3-0.9-0.5-1.5-0.7c-0.8-0.2-1.7-0.3-2.8-0.3c-1.3,0-2.3,0.3-3.1,1c-0.8,0.7-1.2,1.6-1.2,2.8v0.8
			c0,0.9,0.2,1.6,0.7,2c0.4,0.4,1,0.7,1.6,0.9c0.6,0.2,1.3,0.3,2,0.3c0.7,0,1.3,0.1,1.9,0.2c0.6,0.1,1,0.3,1.4,0.6
			c0.3,0.3,0.5,0.7,0.5,1.3v0.4c0,0.8-0.2,1.3-0.7,1.7c-0.5,0.4-1.1,0.6-2,0.6c-1,0-1.9-0.2-2.7-0.6c-0.7-0.4-1-1-1.1-1.7l-0.3-0.7
			h-1.6v4.6h1.4v-1c0.4,0.3,1,0.6,1.6,0.8c0.8,0.2,1.7,0.3,2.7,0.3c1.5,0,2.7-0.3,3.5-0.9c0.8-0.6,1.3-1.6,1.3-2.8v-0.7
			c0-0.9-0.2-1.6-0.7-2.1C367.2,235.6,366.6,235.3,366,235.1z"/>
		<polygon id="XMLID_71_" class="st0" points="392.8,225.3 388.5,225.3 388.5,226.9 390.7,226.9 390.7,240.9 388.5,240.9 
			388.5,242.5 394.9,242.5 394.9,240.9 392.8,240.9 		"/>
		<path id="XMLID_70_" class="st0" d="M404.1,239.5c0,0.8-0.1,1.2-0.2,1.3c-0.1,0.2-0.4,0.3-0.8,0.3c-0.5,0-1.1-0.1-1.1-1.3v-9.4
			h3.3v-1.6H402v-3l-2.2,0.1v2.8h-2.3v1.6h2.3v9.6c0,0.9,0.2,1.6,0.7,2.1c0.5,0.5,1.2,0.7,2.2,0.7c0.9,0,1.6-0.2,2.2-0.7
			c0.6-0.4,0.9-1.1,0.9-1.9v-0.8l-1.7-0.1V239.5z"/>
		<polygon id="XMLID_69_" class="st0" points="413.3,228.8 409,228.8 409,230.4 411.2,230.4 411.2,240.9 409,240.9 409,242.5 
			415.4,242.5 415.4,240.9 413.3,240.9 		"/>
		<path id="XMLID_68_" class="st0" d="M429.6,227.1h1.3c0.2,0,0.4,0,0.5-0.1c0.1-0.1,0.2-0.3,0.2-0.5v-1.1c0-0.2-0.1-0.4-0.2-0.5
			c-0.1-0.1-0.3-0.1-0.5-0.1h-1.3c-0.2,0-0.3,0-0.5,0.1c-0.1,0.1-0.2,0.3-0.2,0.5v1.1c0,0.2,0.1,0.4,0.2,0.5
			C429.3,227.1,429.4,227.1,429.6,227.1z"/>
		<path id="XMLID_67_" class="st0" d="M431.2,232.9c0-1.4-0.3-2.5-1-3.2c-0.7-0.8-1.7-1.1-3.1-1.1c-0.9,0-1.8,0.1-2.6,0.4
			c-0.6,0.2-1.1,0.5-1.5,0.9v-1h-4.3v1.6h2.2v10.5h-2.2v1.6h6.3v-1.6h-2v-7.3c0-0.5,0.1-0.9,0.3-1.3c0.2-0.4,0.4-0.8,0.8-1.1
			c0.3-0.3,0.7-0.5,1.2-0.7c0.5-0.2,1-0.2,1.5-0.2c0.8,0,1.4,0.2,1.8,0.7c0.4,0.5,0.6,1.3,0.6,2.3v7.6h-2.2v1.6h6.4v-1.6h-2V232.9z"
			/>
		<path id="XMLID_64_" class="st0" d="M446.7,228.8v1.3c-0.5-0.4-1-0.8-1.7-1c-0.9-0.3-1.9-0.5-2.9-0.5c-0.8,0-1.5,0.1-2.1,0.4
			c-0.6,0.3-1.2,0.7-1.6,1.2c-0.4,0.5-0.7,1.2-1,1.9c-0.2,0.7-0.3,1.6-0.3,2.4v1.9c0,0.9,0.1,1.7,0.3,2.4c0.2,0.7,0.6,1.4,1,1.9
			c0.4,0.5,1,0.9,1.6,1.2c0.6,0.3,1.3,0.4,2.1,0.4c1.1,0,2-0.2,2.9-0.5c0.6-0.2,1.2-0.6,1.6-1v1.3c0,1-0.2,1.8-0.7,2.2
			c-0.5,0.4-1.3,0.7-2.4,0.7h-0.9c-1,0-1.7-0.1-2.1-0.4c-0.4-0.3-0.6-0.7-0.7-1.3l0-0.2H439c-0.2,0-0.3,0-0.4,0
			c-0.3,0-0.5,0.1-0.8,0.5l-0.1,0.1l0,0.1c0.1,0.9,0.5,1.7,1.4,2.2c0.8,0.5,1.9,0.7,3.4,0.7h1.2c1.8,0,3.1-0.3,3.9-1
			c0.8-0.7,1.3-1.8,1.3-3.3v-11.9h2v-1.6H446.7z M446.7,235.4v0.3c0,0.8-0.1,1.5-0.2,2.1c-0.2,0.6-0.4,1.2-0.6,1.6
			c-0.3,0.4-0.6,0.8-0.9,1c-0.3,0.2-0.7,0.3-1.1,0.3h-1.2c-0.5,0-1-0.1-1.4-0.3c-0.4-0.2-0.8-0.5-1.1-0.9c-0.3-0.4-0.5-0.9-0.7-1.4
			c-0.2-0.6-0.3-1.2-0.3-1.8v-1.7c0-0.7,0.1-1.3,0.2-1.9c0.2-0.5,0.4-1,0.7-1.4c0.3-0.4,0.6-0.7,1-0.9c0.4-0.2,0.8-0.3,1.3-0.3h1.2
			c0.4,0,0.8,0.1,1.1,0.4c0.4,0.3,0.7,0.6,0.9,1.1c0.3,0.5,0.5,1,0.6,1.7C446.6,233.9,446.7,234.6,446.7,235.4z"/>
		<path id="XMLID_63_" class="st0" d="M313.2,261.5h3.5v2.3c-0.2,1.1-0.8,2-1.8,2.6c-1,0.6-2.3,0.9-3.8,0.9c-1.7,0-3-0.5-3.9-1.5
			c-0.9-1-1.4-2.3-1.4-4v-3.2c0-1.7,0.5-3.1,1.4-4c0.9-1,2.2-1.5,3.9-1.5c1.5,0,2.7,0.3,3.7,0.9c1,0.6,1.6,1.3,1.9,2.4v1.1h2v-5.9
			h-1.5v1.5c-0.5-0.5-1.3-0.9-2.1-1.2c-1.1-0.4-2.5-0.6-4-0.6c-2.4,0-4.3,0.6-5.6,1.9c-1.3,1.3-2,3.1-2,5.3v3.1c0,1.1,0.2,2.1,0.5,3
			c0.3,0.9,0.8,1.7,1.5,2.3c0.6,0.6,1.4,1.1,2.3,1.5c0.9,0.3,2,0.5,3.1,0.5c1.4,0,2.7-0.2,3.9-0.6c1-0.3,1.8-0.8,2.4-1.3v1.7h1.6
			v-7.3h1.7v-1.6h-7.3V261.5z"/>
		<path id="XMLID_62_" class="st0" d="M331.5,255.1c-0.5,0.1-1,0.2-1.4,0.3c-0.5,0.2-0.9,0.4-1.3,0.6c-0.2,0.1-0.3,0.2-0.4,0.3v-1.2
			h-4.2v1.6h2.1v10.5h-2.1v1.6h6.7v-1.6h-2.4v-8c0-0.5,0.1-0.8,0.4-1.1c0.2-0.3,0.6-0.6,1-0.7c0.4-0.2,0.9-0.3,1.4-0.4
			c0.5-0.1,1.1-0.1,1.6-0.1h0.3v-0.6c0-0.2,0-0.5,0-1l0-0.3h-0.3C332.4,255,331.9,255,331.5,255.1z"/>
		<path id="XMLID_59_" class="st0" d="M343.8,255h-1.4c-1.7,0-3.1,0.6-4,1.7c-0.9,1.1-1.4,2.6-1.4,4.5v1.8c0,1.9,0.5,3.4,1.4,4.5
			c0.9,1.1,2.3,1.7,4,1.7h1.4c1.7,0,3.1-0.6,4-1.7c0.9-1.1,1.4-2.6,1.4-4.5v-1.8c0-1.9-0.5-3.4-1.4-4.5
			C346.9,255.5,345.5,255,343.8,255z M347.1,261.3v1.5c0,1.4-0.3,2.6-0.9,3.5c-0.6,0.8-1.5,1.2-2.6,1.2h-0.8c-1.2,0-2-0.4-2.6-1.2
			c-0.6-0.8-0.9-2-0.9-3.5v-1.5c0-1.4,0.3-2.6,0.9-3.4c0.6-0.8,1.4-1.2,2.6-1.2h0.8c1.2,0,2,0.4,2.6,1.2
			C346.8,258.6,347.1,259.8,347.1,261.3z"/>
		<path id="XMLID_58_" class="st0" d="M365.4,255.2h-4.2v1.6h2.1v7.3c0,0.5-0.1,0.9-0.3,1.3c-0.2,0.4-0.4,0.8-0.8,1.1
			c-0.3,0.3-0.7,0.5-1.2,0.7c-0.4,0.2-0.9,0.3-1.5,0.3c-0.9,0-1.5-0.2-1.9-0.7c-0.4-0.5-0.6-1.3-0.6-2.3v-9.2h-4.1v1.6h2v7.8
			c0,1.4,0.3,2.5,1,3.3c0.7,0.8,1.7,1.2,3.1,1.2c1,0,1.9-0.2,2.7-0.5c0.6-0.2,1.1-0.5,1.5-0.9v1.2h4.2v-1.6h-2.1V255.2z"/>
		<path id="XMLID_55_" class="st0" d="M379.2,255c-1,0-1.9,0.2-2.8,0.5c-0.6,0.2-1.2,0.6-1.7,1v-1.3h-4.2v1.6h2v14.4h-2v1.6h6.3
			v-1.6h-2.1v-3.6c0.5,0.4,1,0.8,1.6,1c0.8,0.3,1.7,0.4,2.7,0.4c1.7,0,3-0.6,3.9-1.7c0.9-1.1,1.3-2.6,1.3-4.4v-1.9
			c0-1.8-0.4-3.3-1.3-4.4C382.2,255.5,380.9,255,379.2,255z M382.2,261.2v1.7c0,1.4-0.3,2.6-0.9,3.4c-0.6,0.8-1.4,1.2-2.5,1.2
			c-1.3,0-2.3-0.4-3-1.1c-0.7-0.7-1.1-1.7-1.1-3V261c0-1.4,0.4-2.5,1.1-3.3c0.7-0.8,1.7-1.1,3-1.1c1.1,0,1.9,0.4,2.5,1.2
			C381.9,258.6,382.2,259.7,382.2,261.2z"/>
	</g>
</g>
</svg>
