<?xml version="1.0" encoding="utf-8"?>
<!-- Generator: Adobe Illustrator 19.2.0, SVG Export Plug-In . SVG Version: 6.00 Build 0)  -->
<svg version="1.1" id="Layer_1" xmlns="http://www.w3.org/2000/svg" xmlns:xlink="http://www.w3.org/1999/xlink" x="0px" y="0px"
	 viewBox="0 0 126.6 246" style="enable-background:new 0 0 126.6 246;" xml:space="preserve">
<style type="text/css">
	.st0{fill:#AF8D54;}
	.st1{fill:#3C3B3C;}
	.st2{fill:#518CAD;}
</style>
<g id="XMLID_2_">
	<polygon id="XMLID_52_" class="st0" points="88.4,5.4 122,5.4 122,37.1 	"/>
	<path id="XMLID_47_" class="st1" d="M116.1,46.8l0.5,1.9h9.8V0.2H62.7l-0.9,0.1h-2.1h-0.2c-16,1.3-30.8,8.5-41.7,20.1
		c-3.5,3.7-6.6,8-9.1,12.5V11l0,0V7V6.9V2.3C8.6,1,7.6,0.1,6.3,0.1h-4C1,0.1-0.1,1.2-0.1,2.5v0.7l0,0v120.7l0,0v0.3
		c0,1.3,1.1,2.4,2.4,2.4h4c1.2,0,2.3-1,2.4-2.3v-4.6c0,0,0-0.1,0-0.2v-26c3.8,6.8,8.9,13,15,18c10.6,8.8,24.2,14.1,38.1,14.8
		l5.6,0.1h0.3c16-1.3,30.8-8.5,41.7-20.1c3.1-3.3,6-7.1,8.3-11.2V119v4.8l0,0v0.3c0,1.3,1.1,2.4,2.4,2.4h4c1.1,0,2-0.8,2.3-1.8V59.1
		H90.2l0,0h-0.5c-1.3,0.1-2.2,1.1-2.2,2.4v4c0,1.3,1.1,2.4,2.4,2.4h0.3l0,0h27.3c-2.2,25.3-23.1,46.6-48.6,49.6V8.9
		C90.9,10.6,110.1,25.9,116.1,46.8z M117.9,8.8v20.8c-3-4.9-6.8-9.5-11.1-13.3c-3.1-2.9-6.5-5.4-10.1-7.5H117.9z M60.2,117.6
		C33.7,115.3,12,94,9.7,68h50.5V117.6z M60.2,59.2H9.7c2-26.1,23.8-48,50.3-50.3h0.2V59.2z"/>
	<path id="XMLID_46_" class="st1" d="M1.8,147.4h122.7c1.1-0.1,2-1,2-2.2v-3.8c0-1.1-0.8-1.9-1.8-2.1H1.8c-1.1,0.2-1.9,1-1.9,2.1
		v3.8C-0.1,146.3,0.8,147.2,1.8,147.4z"/>
	<path id="XMLID_45_" class="st2" d="M1.8,246h122.7c1.1-0.1,2-1,2-2.2V240c0-1.1-0.8-1.9-1.8-2.1H1.8c-1.1,0.2-1.9,1-1.9,2.1v3.8
		C-0.1,244.9,0.8,245.8,1.8,246z"/>
	<g id="XMLID_3_">
		<polygon id="XMLID_44_" class="st2" points="12.3,166.5 14.4,166.5 14.4,171.6 6.7,171.6 6.7,166.5 8.9,166.5 8.9,165.2 
			2.8,165.2 2.8,166.5 4.9,166.5 4.9,178.3 2.8,178.3 2.8,179.7 8.9,179.7 8.9,178.3 6.7,178.3 6.7,173.1 14.4,173 14.4,178.3 
			12.3,178.3 12.3,179.7 18.4,179.7 18.4,178.3 16.2,178.3 16.2,166.5 18.4,166.5 18.4,165.2 12.3,165.2 		"/>
		<path id="XMLID_41_" class="st2" d="M25.3,179.9c1,0,1.8-0.1,2.5-0.4c0.5-0.2,1-0.5,1.4-0.9v1.1h3.3v-1.4H31v-6.9
			c0-1.1-0.3-2-1-2.6c-0.6-0.6-1.6-0.9-2.9-0.9h-0.9c-1.2,0-2.2,0.2-2.9,0.7c-0.7,0.5-1,1.2-1,2.2v0.6h1.8V171
			c0-0.7,0.2-1.7,2.2-1.7H27c0.8,0,1.3,0.2,1.7,0.5c0.4,0.3,0.5,1,0.5,1.8v1.2h-2.9c-1.5,0-2.6,0.3-3.3,0.8
			c-0.7,0.5-1.1,1.4-1.1,2.4v0.7c0,0.9,0.3,1.7,0.9,2.3C23.4,179.6,24.2,179.9,25.3,179.9z M25.7,178.5c-0.7,0-1.2-0.2-1.5-0.5
			c-0.3-0.4-0.5-0.8-0.5-1.3v-0.4c0-0.7,0.2-1.2,0.7-1.5c0.4-0.4,1.3-0.5,2.4-0.5c0.7,0,1.5,0,2.4,0.1v1.2c-0.1,0.4-0.2,0.9-0.4,1.2
			c-0.2,0.4-0.4,0.7-0.7,1c-0.3,0.3-0.6,0.5-1,0.6C26.7,178.5,26.3,178.5,25.7,178.5z"/>
		<polygon id="XMLID_40_" class="st2" points="40.6,178.3 38.9,178.3 38.9,165.2 35.2,165.2 35.2,166.5 37.1,166.5 37.1,178.3 
			35.2,178.3 35.2,179.7 40.6,179.7 		"/>
		<path id="XMLID_39_" class="st2" d="M45.3,166.7h1.1c0.2,0,0.3,0,0.4-0.1s0.2-0.2,0.2-0.4v-1c0-0.2,0-0.3-0.2-0.4
			c-0.1-0.1-0.2-0.1-0.4-0.1h-1.1c-0.2,0-0.3,0-0.4,0.1s-0.1,0.2-0.1,0.4v0.9c0,0.2,0,0.3,0.1,0.4C45,166.7,45.2,166.7,45.3,166.7z"
			/>
		<polygon id="XMLID_38_" class="st2" points="48.5,178.3 46.8,178.3 46.8,168.1 43.1,168.1 43.1,169.5 45,169.5 45,178.3 
			43.1,178.3 43.1,179.7 48.5,179.7 		"/>
		<polygon id="XMLID_37_" class="st2" points="56.7,178.3 55,178.3 55,165.2 51.3,165.2 51.3,166.5 53.2,166.5 53.2,178.3 
			51.3,178.3 51.3,179.7 56.7,179.7 		"/>
		<path id="XMLID_34_" class="st2" d="M63.1,179.9c1,0,1.8-0.1,2.5-0.4c0.5-0.2,1-0.5,1.5-0.9v1.1h3.3v-1.4h-1.6v-6.9
			c0-1.1-0.3-2-1-2.6c-0.6-0.6-1.6-0.9-2.9-0.9H64c-1.2,0-2.2,0.2-2.9,0.7c-0.7,0.5-1.1,1.2-1.1,2.2v0.6h1.8V171
			c0-0.7,0.2-1.7,2.2-1.7h0.7c0.8,0,1.3,0.2,1.7,0.5c0.3,0.3,0.5,1,0.5,1.8v1.2H64c-1.5,0-2.6,0.3-3.3,0.8c-0.7,0.5-1.1,1.4-1.1,2.4
			v0.7c0,0.9,0.3,1.7,0.9,2.3C61.2,179.6,62,179.9,63.1,179.9z M63.5,178.5c-0.7,0-1.2-0.2-1.5-0.5c-0.3-0.4-0.5-0.8-0.5-1.3v-0.4
			c0-0.7,0.2-1.2,0.6-1.5c0.5-0.4,1.3-0.5,2.4-0.5c0.7,0,1.5,0,2.4,0.1v1.2c-0.1,0.4-0.2,0.9-0.4,1.2c-0.2,0.4-0.4,0.7-0.7,1
			c-0.3,0.3-0.6,0.5-1,0.6C64.6,178.5,64.1,178.5,63.5,178.5z"/>
		<path id="XMLID_31_" class="st2" d="M79.2,183.3c1.5,0,2.6-0.3,3.3-0.8c0.7-0.6,1.1-1.5,1.1-2.8v-10.1h1.7v-1.4h-3.5v1.1
			c-0.4-0.4-0.9-0.7-1.4-0.9c-0.8-0.3-1.6-0.4-2.5-0.4c-0.7,0-1.3,0.1-1.8,0.4c-0.5,0.2-1,0.6-1.3,1c-0.4,0.4-0.6,1-0.8,1.6
			c-0.2,0.6-0.3,1.3-0.3,2.1v1.6c0,0.7,0.1,1.4,0.3,2c0.2,0.6,0.5,1.2,0.8,1.6c0.4,0.4,0.8,0.8,1.3,1s1.1,0.4,1.8,0.4
			c0.9,0,1.7-0.1,2.5-0.4c0.5-0.2,1-0.5,1.4-0.9v1.1c0,0.9-0.2,1.5-0.6,1.9s-1.1,0.6-2,0.6h-0.8c-0.8,0-1.4-0.1-1.8-0.4
			c-0.3-0.2-0.5-0.6-0.6-1.1v-0.2h-0.8c-0.2,0-0.3,0-0.3,0c-0.2,0-0.4,0.1-0.7,0.4l-0.1,0.1v0.1c0.1,0.8,0.5,1.4,1.1,1.8
			c0.7,0.4,1.6,0.6,2.8,0.6L79.2,183.3L79.2,183.3z M81.8,173.7v0.3c0,0.7-0.1,1.2-0.2,1.8c-0.1,0.5-0.3,1-0.6,1.4
			c-0.2,0.4-0.5,0.7-0.8,0.9c-0.3,0.2-0.6,0.3-0.9,0.3h-1c-0.4,0-0.8-0.1-1.1-0.3c-0.3-0.2-0.6-0.4-0.9-0.8
			c-0.3-0.3-0.5-0.7-0.6-1.2s-0.2-1-0.2-1.6V173c0-0.6,0.1-1.1,0.2-1.6s0.3-0.9,0.6-1.2c0.2-0.3,0.5-0.6,0.9-0.8
			c0.3-0.2,0.7-0.3,1.1-0.3h1c0.4,0,0.7,0.1,1,0.3c0.3,0.2,0.6,0.5,0.8,0.9c0.2,0.4,0.4,0.9,0.5,1.4
			C81.7,172.5,81.8,173.1,81.8,173.7z"/>
		<polygon id="XMLID_30_" class="st2" points="93.3,178.3 91.5,178.3 91.5,168.1 87.9,168.1 87.9,169.5 89.7,169.5 89.7,178.3 
			87.9,178.3 87.9,179.7 93.3,179.7 		"/>
		<path id="XMLID_29_" class="st2" d="M90.1,166.7h1.1c0.2,0,0.3,0,0.4-0.1c0.2-0.1,0.2-0.3,0.2-0.4v-1c0-0.1,0-0.3-0.2-0.4
			c-0.1-0.1-0.2-0.1-0.4-0.1h-1.1c-0.2,0-0.3,0-0.4,0.1c-0.2,0.1-0.2,0.3-0.2,0.4v0.9c0,0.1,0,0.3,0.2,0.4
			C89.8,166.7,89.9,166.7,90.1,166.7z"/>
		<path id="XMLID_28_" class="st2" d="M104.7,176c0,0.3-0.1,0.6-0.2,0.9s-0.2,0.6-0.4,0.8c-0.2,0.2-0.4,0.4-0.6,0.6
			c-0.2,0.1-0.5,0.2-0.8,0.2h-0.9c-0.5,0-0.9-0.1-1.3-0.3c-0.4-0.2-0.7-0.4-0.9-0.8c-0.3-0.3-0.5-0.8-0.6-1.2
			c-0.1-0.5-0.2-1-0.2-1.6v-1.4c0-0.6,0.1-1.1,0.2-1.6s0.3-0.9,0.6-1.2c0.3-0.3,0.6-0.6,0.9-0.8c0.3-0.2,0.8-0.3,1.2-0.3
			c0.9,0,1.7,0.2,2.2,0.6s0.8,0.9,1,1.6v0.6h1.6v-3.9h-1.2v0.9c-0.4-0.3-0.8-0.5-1.2-0.7c-0.6-0.3-1.4-0.4-2.4-0.4
			c-1.5,0-2.6,0.5-3.4,1.4s-1.2,2.2-1.2,3.8v1.7c0,0.8,0.1,1.5,0.3,2.1c0.2,0.6,0.5,1.2,0.9,1.6c0.4,0.5,0.9,0.8,1.5,1
			s1.2,0.4,1.9,0.4h1.4c0.9,0,1.7-0.4,2.4-1c0.6-0.7,1-1.6,1.1-2.8V176H105L104.7,176z"/>
		<path id="XMLID_27_" class="st2" d="M16,192.3v-5h-1.3v1.3c-0.4-0.4-1-0.7-1.7-1c-0.9-0.3-2-0.5-3.3-0.5c-1,0-1.9,0.1-2.7,0.4
			c-0.8,0.3-1.5,0.7-2,1.2s-1,1.2-1.3,1.9c-0.3,0.7-0.4,1.6-0.4,2.5v2.6c0,0.9,0.1,1.8,0.4,2.5c0.3,0.8,0.7,1.4,1.3,1.9
			c0.6,0.5,1.2,1,2,1.2c0.8,0.3,1.7,0.4,2.6,0.4c1.6,0,3-0.3,4.1-0.9s1.9-1.6,2.3-2.8v-1.3h-1.9v0.8c-0.3,0.9-0.8,1.6-1.6,2
			c-0.8,0.5-1.7,0.7-2.9,0.7c-1.5,0-2.6-0.4-3.3-1.3c-0.8-0.8-1.2-2-1.2-3.5v-2.6c0-1.5,0.4-2.6,1.2-3.5c0.8-0.8,1.9-1.2,3.4-1.2
			c0.5,0,1.1,0.1,1.6,0.2s0.9,0.3,1.3,0.5s0.7,0.5,1,0.9s0.5,0.8,0.6,1.2v0.8H16V192.3z"/>
		<path id="XMLID_24_" class="st2" d="M25.8,190.1h-1.2c-1.5,0-2.6,0.5-3.4,1.4s-1.2,2.2-1.2,3.8v1.5c0,1.6,0.4,2.9,1.2,3.8
			c0.8,0.9,1.9,1.4,3.4,1.4h1.2c1.4,0,2.6-0.5,3.4-1.4s1.2-2.2,1.2-3.8v-1.5c0-1.6-0.4-2.9-1.2-3.8
			C28.4,190.6,27.3,190.1,25.8,190.1z M28.6,195.4v1.3c0,1.2-0.3,2.2-0.8,2.9c-0.5,0.7-1.2,1-2.2,1h-0.7c-1,0-1.7-0.3-2.2-1
			s-0.8-1.7-0.8-2.9v-1.3c0-1.2,0.3-2.2,0.8-2.9c0.5-0.7,1.2-1,2.2-1h0.7c1,0,1.7,0.3,2.2,1C28.3,193.2,28.6,194.2,28.6,195.4z"/>
		<path id="XMLID_23_" class="st2" d="M72.4,201.9v-1.4h-1.8v-10.2H67v1.4h1.8v6.2c0,0.4-0.1,0.8-0.2,1.1c-0.2,0.4-0.4,0.6-0.7,0.9
			c-0.3,0.3-0.6,0.5-1,0.6s-0.8,0.2-1.2,0.2c-0.8,0-1.3-0.2-1.6-0.6c-0.3-0.4-0.5-1.1-0.5-2v-7.8h-3.5v1.4h1.7v6.6
			c0,1.2,0.3,2.1,0.8,2.8c0.6,0.7,1.4,1,2.6,1c0.9,0,1.6-0.1,2.3-0.4c0.5-0.2,0.9-0.5,1.3-0.8v1L72.4,201.9L72.4,201.9z"/>
		<path id="XMLID_22_" class="st2" d="M35.2,200.5h-1.8v1.4h5.3v-1.4H37v-6.2c0-0.4,0.1-0.8,0.2-1.1c0.2-0.3,0.4-0.6,0.6-0.9
			c0.3-0.2,0.6-0.4,1-0.6c0.4-0.1,0.8-0.2,1.3-0.2c0.7,0,1.2,0.2,1.5,0.6s0.5,1.1,0.5,2v6.4h-1.9v1.4h5.4v-1.4h-1.7v-6.7
			c0-1.2-0.3-2.1-0.9-2.7s-1.5-1-2.6-1c-0.8,0-1.5,0.1-2.2,0.3c-0.5,0.2-0.9,0.4-1.3,0.7v-0.9h-3.7v1.4h1.9v8.9H35.2z"/>
		<path id="XMLID_21_" class="st2" d="M55.6,195.6c-0.5-0.2-1.1-0.2-1.7-0.3c-0.6,0-1.1-0.1-1.6-0.2s-0.9-0.2-1.2-0.4
			c-0.3-0.2-0.4-0.5-0.4-1v-0.5c0-0.5,0.2-1,0.5-1.3c0.4-0.3,0.9-0.5,1.6-0.5c0.9,0,1.7,0.1,2.2,0.5c0.5,0.3,0.7,0.6,0.7,1v1h1.5
			v-3.7H56v0.7c-0.3-0.2-0.8-0.4-1.3-0.6c-0.7-0.2-1.5-0.3-2.4-0.3c-1.1,0-1.9,0.3-2.6,0.8c-0.7,0.6-1,1.4-1,2.4v0.7
			c0,0.8,0.2,1.3,0.6,1.7c0.4,0.4,0.8,0.6,1.4,0.7c0.5,0.1,1.1,0.2,1.7,0.3c0.6,0,1.1,0.1,1.6,0.2s0.9,0.3,1.2,0.5
			c0.3,0.2,0.4,0.6,0.4,1.1v0.3c0,0.6-0.2,1.1-0.6,1.4s-0.9,0.5-1.7,0.5c-0.9,0-1.6-0.2-2.2-0.5s-0.9-0.8-0.9-1.5L50,198h-1.3v3.9
			h1.2V201c0.4,0.3,0.8,0.5,1.3,0.7c0.7,0.2,1.4,0.3,2.2,0.3c1.3,0,2.3-0.3,3-0.8s1.1-1.4,1.1-2.4v-0.6c0-0.8-0.2-1.4-0.6-1.8
			C56.6,196.1,56.2,195.8,55.6,195.6z"/>
		<polygon id="XMLID_20_" class="st2" points="78.3,187.3 74.6,187.3 74.6,188.7 76.5,188.7 76.5,200.5 74.6,200.5 74.6,201.9 
			80,201.9 80,200.5 78.3,200.5 		"/>
		<path id="XMLID_19_" class="st2" d="M87.9,199.4c0,0.7-0.1,1-0.2,1.1c-0.1,0.2-0.3,0.2-0.7,0.2c-0.4,0-0.9-0.1-0.9-1.1v-7.9h2.8
			v-1.4h-2.8v-2.5l-1.8,0.1v2.4h-1.9v1.4h1.9v8.1c0,0.8,0.2,1.4,0.6,1.7c0.4,0.4,1,0.6,1.9,0.6c0.8,0,1.4-0.2,1.8-0.6
			c0.5-0.4,0.7-0.9,0.7-1.6v-0.7l-1.4-0.1V199.4z"/>
		<polygon id="XMLID_18_" class="st2" points="95.7,190.3 92,190.3 92,191.7 93.8,191.7 93.8,200.5 92,200.5 92,201.9 97.4,201.9 
			97.4,200.5 95.7,200.5 		"/>
		<path id="XMLID_17_" class="st2" d="M109.4,188.9h1.1c0.2,0,0.3,0,0.4-0.1s0.2-0.2,0.2-0.4v-1c0-0.2,0-0.3-0.2-0.4
			c-0.1-0.1-0.2-0.1-0.4-0.1h-1.1c-0.2,0-0.3,0-0.4,0.1s-0.1,0.2-0.1,0.4v0.9c0,0.2,0,0.3,0.1,0.4
			C109.1,188.9,109.2,188.9,109.4,188.9z"/>
		<path id="XMLID_16_" class="st2" d="M110.8,193.8c0-1.2-0.3-2.1-0.9-2.7s-1.5-1-2.6-1c-0.8,0-1.5,0.1-2.2,0.3
			c-0.5,0.2-0.9,0.4-1.3,0.7v-0.9h-3.7v1.4h1.9v8.8h-1.8v1.4h5.3v-1.4h-1.7v-6.2c0-0.4,0.1-0.8,0.2-1.1c0.2-0.3,0.4-0.6,0.6-0.9
			c0.3-0.2,0.6-0.4,1-0.6c0.4-0.1,0.8-0.2,1.3-0.2c0.7,0,1.2,0.2,1.5,0.6s0.5,1.1,0.5,2v6.4H107v1.4h5.4v-1.4h-1.7v-6.6H110.8z"/>
		<path id="XMLID_13_" class="st2" d="M123.9,190.3v1.1c-0.4-0.4-0.9-0.7-1.4-0.9c-0.8-0.3-1.6-0.4-2.5-0.4c-0.7,0-1.3,0.1-1.8,0.4
			c-0.5,0.2-1,0.6-1.3,1c-0.4,0.5-0.6,1-0.8,1.6c-0.2,0.6-0.3,1.3-0.3,2.1v1.6c0,0.8,0.1,1.4,0.3,2.1c0.2,0.6,0.5,1.2,0.8,1.6
			c0.4,0.4,0.8,0.8,1.4,1c0.5,0.2,1.1,0.4,1.8,0.4c0.9,0,1.7-0.1,2.5-0.4c0.5-0.2,1-0.5,1.4-0.9v1.1c0,0.9-0.2,1.5-0.6,1.9
			s-1.1,0.6-2,0.6h-0.8c-0.8,0-1.4-0.1-1.8-0.4c-0.3-0.2-0.5-0.6-0.6-1.1v-0.2h-0.8c-0.2,0-0.3,0-0.3,0c-0.2,0-0.5,0.1-0.7,0.4
			l-0.1,0.1v0.1c0.1,0.8,0.5,1.4,1.1,1.8c0.7,0.4,1.6,0.6,2.8,0.6h1c1.5,0,2.6-0.3,3.3-0.9c0.7-0.6,1.1-1.5,1.1-2.8v-10.1h1.7v-1.4
			L123.9,190.3L123.9,190.3z M123.9,195.9v0.3c0,0.6-0.1,1.2-0.2,1.8c-0.1,0.5-0.3,1-0.5,1.4s-0.5,0.7-0.8,0.9
			c-0.3,0.2-0.6,0.3-0.9,0.3h-1c-0.4,0-0.8-0.1-1.1-0.3c-0.3-0.2-0.6-0.4-0.9-0.8c-0.3-0.3-0.5-0.7-0.6-1.2s-0.2-1-0.2-1.6v-1.5
			c0-0.6,0.1-1.1,0.2-1.6s0.3-0.9,0.6-1.2c0.2-0.3,0.5-0.6,0.9-0.8c0.3-0.2,0.7-0.3,1.1-0.3h1c0.4,0,0.7,0.1,1,0.3
			c0.3,0.2,0.6,0.5,0.8,0.9c0.2,0.4,0.4,0.9,0.5,1.4C123.8,194.7,123.9,195.3,123.9,195.9z"/>
		<path id="XMLID_12_" class="st2" d="M11,218h3v1.9c-0.2,0.9-0.7,1.7-1.5,2.2s-1.9,0.8-3.2,0.8c-1.4,0-2.5-0.4-3.3-1.2
			c-0.8-0.8-1.2-2-1.2-3.4v-2.7c0-1.4,0.4-2.6,1.2-3.4c0.8-0.8,1.9-1.2,3.3-1.2c1.2,0,2.3,0.2,3.1,0.7c0.8,0.5,1.4,1.1,1.6,2v1h1.7
			v-5h-1.3v1.3c-0.5-0.4-1.1-0.7-1.8-1c-0.9-0.3-2.1-0.5-3.3-0.5c-2,0-3.6,0.5-4.7,1.6s-1.7,2.6-1.7,4.5v2.6c0,0.9,0.1,1.8,0.4,2.5
			c0.3,0.8,0.7,1.4,1.3,2c0.5,0.5,1.2,0.9,2,1.2c0.8,0.3,1.7,0.4,2.6,0.4c1.2,0,2.3-0.2,3.3-0.5c0.8-0.3,1.5-0.6,2-1.1v1.4h1.4V218
			h1.4v-1.4H11V218z"/>
		<path id="XMLID_11_" class="st2" d="M26.5,212.5c-0.4,0.1-0.8,0.1-1.2,0.3c-0.4,0.1-0.8,0.3-1.1,0.5c-0.1,0.1-0.2,0.2-0.4,0.3v-1
			h-3.6v1.4H22v8.8h-1.8v1.4h5.7v-1.4h-2.1v-6.7c0-0.4,0.1-0.7,0.3-1c0.2-0.3,0.5-0.5,0.8-0.6c0.4-0.2,0.8-0.3,1.2-0.3
			c0.4-0.1,0.9-0.1,1.3-0.1h0.2v-0.5c0-0.2,0-0.5,0-0.9v-0.2h-0.2C27.2,212.5,26.8,212.5,26.5,212.5z"/>
		<path id="XMLID_8_" class="st2" d="M36.9,212.4h-1.2c-1.5,0-2.6,0.5-3.4,1.4s-1.2,2.2-1.2,3.8v1.5c0,1.6,0.4,2.9,1.2,3.8
			c0.8,1,1.9,1.4,3.4,1.4h1.2c1.4,0,2.6-0.5,3.4-1.4s1.2-2.2,1.2-3.8v-1.5c0-1.6-0.4-2.9-1.2-3.8C39.5,212.9,38.3,212.4,36.9,212.4z
			 M39.6,217.8v1.3c0,1.2-0.3,2.2-0.8,2.9c-0.5,0.7-1.2,1-2.2,1h-0.7c-1,0-1.7-0.3-2.2-1s-0.8-1.7-0.8-2.9v-1.3
			c0-1.2,0.3-2.2,0.8-2.9c0.5-0.7,1.2-1,2.2-1h0.7c1,0,1.7,0.3,2.2,1C39.4,215.6,39.6,216.5,39.6,217.8z"/>
		<path id="XMLID_7_" class="st2" d="M55.2,212.6h-3.6v1.4h1.8v6.2c0,0.4-0.1,0.8-0.2,1.1c-0.2,0.3-0.4,0.6-0.6,0.9
			c-0.3,0.2-0.6,0.5-1,0.6c-0.4,0.2-0.8,0.2-1.2,0.2c-0.8,0-1.3-0.2-1.6-0.6c-0.3-0.4-0.5-1.1-0.5-2v-7.8h-3.5v1.4h1.7v6.6
			c0,1.2,0.3,2.1,0.8,2.8c0.6,0.7,1.4,1,2.6,1c0.9,0,1.6-0.1,2.3-0.4c0.5-0.2,0.9-0.5,1.3-0.8v1h3.6v-1.4h-1.8L55.2,212.6
			L55.2,212.6z"/>
		<path id="XMLID_4_" class="st2" d="M66.8,212.4c-0.8,0-1.6,0.1-2.3,0.4c-0.5,0.2-1,0.5-1.4,0.9v-1.1h-3.5v1.4h1.7v12.2h-1.7v1.4
			h5.3v-1.4H63v-3c0.4,0.4,0.9,0.6,1.4,0.8c0.7,0.2,1.5,0.4,2.3,0.4c1.4,0,2.5-0.5,3.3-1.4c0.7-0.9,1.1-2.2,1.1-3.7v-1.6
			c0-1.6-0.4-2.8-1.1-3.7C69.3,212.9,68.2,212.4,66.8,212.4z M69.3,217.7v1.4c0,1.2-0.3,2.2-0.8,2.9c-0.5,0.7-1.2,1-2.1,1
			c-1.1,0-1.9-0.3-2.6-0.9c-0.6-0.6-0.9-1.5-0.9-2.5v-2.1c0-1.2,0.3-2.2,0.9-2.8c0.6-0.6,1.5-1,2.6-1c0.9,0,1.6,0.3,2.1,1
			C69.1,215.5,69.3,216.5,69.3,217.7z"/>
	</g>
</g>
</svg>
