<?xml version="1.0" encoding="utf-8"?>
<!-- Generator: Adobe Illustrator 18.0.0, SVG Export Plug-In . SVG Version: 6.00 Build 0)  -->
<!DOCTYPE svg PUBLIC "-//W3C//DTD SVG 1.1//EN" "http://www.w3.org/Graphics/SVG/1.1/DTD/svg11.dtd">
<svg version="1.1" id="Layer_1" xmlns="http://www.w3.org/2000/svg" xmlns:xlink="http://www.w3.org/1999/xlink" x="0px" y="0px"
	 viewBox="0 0 512 512" enable-background="new 0 0 512 512" xml:space="preserve">
<g>
	<g>
		<path fill="#2C3135" d="M344.6,195.8c0-48.8-39.9-88.5-89.1-88.5c-49.1,0-89.1,39.7-89.1,88.5s39.9,88.5,89.1,88.5
			C304.6,284.4,344.6,244.7,344.6,195.8L344.6,195.8z M255.5,265c-37.9,0-68.6-30.5-68.6-68.2s30.7-68.2,68.6-68.2
			s68.6,30.5,68.6,68.2S293.4,265,255.5,265z"/>
		<path fill="#2C3135" d="M454.1,438l-78.8-135.9l47.5-10.3l-17.9-55.9l43.6-39.5l-43.6-39.5l17.9-55.9l-57.7-12.5L352.5,31
			l-56.3,17.8L256.5,5.5l-39.8,43.4L160.5,31l-12.6,57.3l-57.7,12.5l17.9,55.9l-43.6,39.5l43.6,39.5l-17.9,55.9l46.1,10L57.9,437
			c-5.1,9.2,2.8,17.2,10.2,15.3l47.1-9.2l15.4,44.8c2.4,7.6,13.6,10.7,18.4,2l78.5-134.4l29,31.7l28.1-30.6L362,489.9
			c5.5,9.1,17.5,5.6,19.5-1l15.4-44.8l47.1,9.2C452.5,455.7,460.1,447.7,454.1,438L454.1,438z M141.8,460.4l-11.3-31.5
			c-1-4.1-5.1-7.1-9.2-7.1c-1,0-1,0-2,0l-33.8,6.1l64.9-112.1l10.1,45.9l47.2-14.9L141.8,460.4z M223.1,320.4l-47.3,15l-10.6-48.2
			l-48.5-10.5l15.1-47L95,196.3l36.7-33.2l-15.1-47l48.5-10.5l10.6-48.2l47.3,15l33.4-36.5L290,72.3l47.3-15l10.6,48.2l48.5,10.5
			l-15.1,47l36.7,33.2l-36.7,33.2l15.1,47l-48.5,10.5l-10.6,48.2l-47.3-15l-33.4,36.5L223.1,320.4L223.1,320.4z M391.7,421.8
			c-5.1,0-9.2,2-11.3,7.1l-11.3,31.5l-66.3-114.5l49.7,15.7l9.5-43l63.5,109.2L391.7,421.8L391.7,421.8z"/>
	</g>
</g>
</svg>
