<?xml version="1.0" encoding="UTF-8"?>
<svg width="37px" height="36px" viewBox="0 0 37 36" version="1.1" xmlns="http://www.w3.org/2000/svg" xmlns:xlink="http://www.w3.org/1999/xlink">
    <!-- Generator: Sketch 3.8.1 (29687) - http://www.bohemiancoding.com/sketch -->
    <title>100 %</title>
    <desc>Created with Sketch.</desc>
    <defs></defs>
    <g id="Welcome" stroke="none" stroke-width="1" fill="none" fill-rule="evenodd">
        <g id="RP-Website" transform="translate(-638.000000, -1451.000000)">
            <g id="Quality" transform="translate(237.000000, 1366.000000)">
                <g id="100-%" transform="translate(401.000000, 85.000000)">
                    <rect id="Rectangle-84-Copy-2" fill="#0093D0" x="0" y="0" width="37" height="36" rx="2"></rect>
                    <g id="like-2" stroke-width="1" transform="translate(11.000000, 9.000000)" fill="#FFFFFF">
                        <g id="Capa_1">
                            <g id="Group">
                                <path d="M9.38258921,0 C8.58549378,0 8.85354357,1.67571429 8.85354357,1.67571429 C8.85354357,1.67571429 7.1500166,6.29693878 5.52055602,7.52857143 C5.17138589,7.88938776 4.95271369,8.28836735 4.81516183,8.6144898 L4.81516183,8.6144898 L4.81516183,8.6144898 C4.78341909,8.69428571 4.75520332,8.77061224 4.73051452,8.84 C4.62117842,9.05857143 4.38839834,9.39510204 3.89109544,9.69 L5.52055602,16.66 C5.52055602,16.66 8.04234025,16.9826531 10.5711784,16.9306122 C11.5834191,17.0104082 12.6556183,17.0173469 13.5091452,16.8369388 C16.4083154,16.2297959 15.6817593,14.2418367 15.6817593,14.2418367 C17.2442075,13.0865306 16.3554108,11.6432653 16.3554108,11.6432653 C17.7450373,10.2173469 16.3800996,9.02040816 16.3800996,9.02040816 C16.3800996,9.02040816 17.1313444,7.86857143 16.1614274,6.9977551 C14.9516763,5.90836735 11.6680664,6.63346939 11.6680664,6.63346939 L11.6680664,6.63346939 C11.4388133,6.67163265 11.1954523,6.72020408 10.9344564,6.78265306 C10.9344564,6.78265306 9.79877178,7.30306122 10.9344564,3.91346939 C12.073668,0.523877551 10.1796846,0 9.38258921,0 L9.38258921,0 Z" id="Shape"></path>
                                <path d="M4.34960166,16.1569388 L3.11516183,10.3873469 C3.04462241,10.0577551 2.7060332,9.78714286 2.36391701,9.78714286 L0.00790041494,9.78714286 L0.00437344398,16.7536735 L3.85229876,16.7536735 C4.19794191,16.7571429 4.42014108,16.4865306 4.34960166,16.1569388 L4.34960166,16.1569388 Z" id="Shape"></path>
                            </g>
                        </g>
                    </g>
                </g>
            </g>
        </g>
    </g>
</svg>