<?xml version="1.0" encoding="UTF-8"?>
<svg width="165px" height="165px" viewBox="0 0 165 165" version="1.1" xmlns="http://www.w3.org/2000/svg" xmlns:xlink="http://www.w3.org/1999/xlink">
    <!-- Generator: Sketch 3.8.1 (29687) - http://www.bohemiancoding.com/sketch -->
    <title>Page 1 Copy 2</title>
    <desc>Created with Sketch.</desc>
    <defs>
        <polygon id="path-1" points="164.682561 164.999772 164.682561 0.317439446 0.000285467128 0.317439446 0.000285467128 164.999772 164.682561 164.999772"></polygon>
    </defs>
    <g id="Welcome" stroke="none" stroke-width="1" fill="none" fill-rule="evenodd">
        <g id="RP-Website" transform="translate(-790.000000, -1610.000000)">
            <g id="Page-1-Copy-2" transform="translate(790.000000, 1610.000000)">
                <path d="M127.46447,78 C127.46447,78 126.12902,79.7758878 126.126898,79.7789339 C126.152365,79.7449189 126.477075,80.1119764 126.516338,80.1586835 C127.16788,80.9471208 126.52748,81.7512965 125.944381,82.3721972 C125.397891,82.9540061 124.71027,83.2951715 123.965346,82.8270844 L123.413551,82.4808421 C123.413551,82.4808421 122.000637,84.0094866 122.000107,84.0094866 C121.991618,84.0186249 122.491947,84.3389752 122.520598,84.3552211 C122.950892,84.6019568 123.419918,84.7933547 123.908575,84.9035227 C125.349609,85.2274268 126.794357,84.7202478 127.706942,83.615014 C128.416847,82.7560083 128.992518,81.6858049 128.999946,80.5556945 C129.006844,79.4981832 128.349465,78.5858704 127.46447,78" id="Fill-1" fill="#21B7F1"></path>
                <g id="Group-5">
                    <mask id="mask-2" fill="white">
                        <use xlink:href="#path-1"></use>
                    </mask>
                    <g id="Clip-4"></g>
                    <path d="M125.448244,104.299754 C112.74724,104.299754 102.451012,94.003526 102.451012,81.3025225 C102.451012,68.60209 112.74724,58.3058616 125.448244,58.3058616 C138.149247,58.3058616 148.445476,68.60209 148.445476,81.3025225 C148.445476,94.003526 138.149247,104.299754 125.448244,104.299754 L125.448244,104.299754 Z M139.038763,125.907903 L138.128123,126.818543 C137.940285,127.00581 137.654247,127.04292 137.423019,126.913318 C125.766254,120.4001 110.876289,120.4001 110.876289,120.4001 L106.572016,120.4001 C106.242016,120.4001 105.974247,120.667869 105.974247,120.997869 L105.974247,141.987696 C105.974247,142.317696 105.70705,142.585464 105.37705,142.585464 L99.8446972,142.585464 C99.5146972,142.585464 99.2475,142.317696 99.2475,141.987696 L99.2475,120.997869 C99.2475,120.667869 98.9803028,120.4001 98.6503028,120.4001 L75.1689187,120.4001 C74.8389187,120.4001 74.5717215,120.132903 74.5717215,119.802903 L74.5717215,112.792401 C74.5717215,112.465827 74.8343512,112.199201 75.1614965,112.195204 L97.9937284,111.909737 C117.14058,112.171796 135.347673,122.772903 138.932569,124.978422 C139.261998,125.181104 139.31167,125.634426 139.038763,125.907903 L139.038763,125.907903 Z M87.4537111,151.599945 C87.4537111,151.855152 87.1516869,152.027574 86.9918253,152.06183 C85.0849048,152.468907 81.0980709,152.468907 79.1911505,152.06183 C79.0312889,152.027574 78.7298356,151.855152 78.7298356,151.599945 L78.7298356,122.964737 C78.7298356,122.7101 78.9359429,122.503422 79.1911505,122.503422 L86.9918253,122.503422 C87.2470329,122.503422 87.4537111,122.7101 87.4537111,122.964737 L87.4537111,151.599945 Z M68.2195069,141.88664 C68.2195069,142.110446 68.0379498,142.292574 67.8141436,142.292574 L66.7259429,142.292574 L58.0020675,142.292574 L56.9138668,142.292574 C56.6900606,142.292574 56.5085035,142.110446 56.5085035,141.88664 L56.5085035,135.236969 C56.5085035,134.234408 57.1268253,133.378007 58.0020675,133.021744 L58.0020675,92.8981972 L49.9684516,92.8981972 C49.6995415,92.8981972 49.4820156,92.6801003 49.4820156,92.4111903 L49.4820156,89.2676263 C49.4820156,88.9987163 49.6995415,88.7806194 49.9684516,88.7806194 L58.0020675,88.7806194 L58.0020675,84.8537336 C58.0020675,83.8580242 58.8093685,83.0501522 59.8056488,83.0501522 L64.9223616,83.0501522 C65.9186419,83.0501522 66.7259429,83.8580242 66.7259429,84.8537336 L66.7259429,88.7806194 L74.7595588,88.7806194 C75.0284689,88.7806194 75.2465657,88.9987163 75.2465657,89.2676263 L75.2465657,92.4111903 C75.2465657,92.6801003 75.0284689,92.8981972 74.7595588,92.8981972 L66.7259429,92.8981972 L66.7259429,133.021744 C67.6011851,133.378007 68.2195069,134.234408 68.2195069,135.236969 L68.2195069,141.88664 Z M48.7466522,77.7039239 C48.1780017,75.6942353 45.5642647,68.5940969 36.7867215,65.6475052 L34.2152336,73.8204291 C34.0919118,74.220654 33.96859,74.6214498 33.8458391,75.0216747 C33.3616869,76.5963114 32.8575519,78.1646678 32.3694031,79.7381626 C32.353417,79.7901176 32.3340052,79.8415017 32.3163062,79.8934567 C32.0513927,80.6607924 31.7864792,81.4275571 31.5215657,82.1954637 C31.1624481,83.2351349 30.8587111,84.2342699 30.1324827,85.0923841 C29.7413927,85.5542699 29.2304066,85.8300311 28.6343512,85.9305156 C28.5612716,85.9430761 27.9395242,85.9818997 27.9395242,85.9818997 L27.3046453,87.7055502 C28.2763754,87.7055502 29.2475346,87.7095467 30.2186938,87.7055502 C31.3605623,87.7009827 32.3003201,87.0752388 32.9334862,86.1623149 C33.5272578,85.3070554 33.7110986,84.3370381 34.0131228,83.3658789 C34.2272232,82.6756194 34.4413235,81.9859308 34.6554239,81.2962422 C35.1875346,79.5840104 35.7190744,77.8717785 36.2511851,76.1595467 C36.912327,74.0288201 37.7767215,71.4773149 38.457846,69.3071938 C43.9091263,72.3302907 47.6025,78.1384048 47.6025,84.8137682 C47.6025,94.6041488 39.6659429,102.540706 29.8755623,102.540706 C20.0851817,102.540706 12.1486246,94.6041488 12.1486246,84.8137682 C12.1486246,75.0233875 20.0851817,67.0868304 29.8755623,67.0868304 C30.7764965,67.0868304 31.6557353,67.1718997 32.518417,67.3054983 L33.3262889,64.771692 C32.4499048,64.6192526 31.5381228,64.4953599 30.5629671,64.4239931 C30.1798702,64.3960173 29.8755623,64.0848581 29.8755623,63.7006194 L29.8755623,54.3789758 C29.8755623,53.9747543 30.2032785,53.6464671 30.6075,53.6464671 L40.0010813,53.6464671 C40.4327076,53.6464671 40.7707007,53.2753599 40.7301644,52.8454464 L38.9294377,33.7579723 C38.8889014,33.3280588 39.2268945,32.9569516 39.6585208,32.9569516 L48.5730882,32.9569516 C49.0104239,32.9569516 49.3507007,33.3377647 49.3010294,33.7728166 L47.1451817,52.6359135 C47.0955104,53.0703945 47.4352163,53.4512076 47.8725519,53.4512076 L57.2501471,53.4512076 C57.6543685,53.4512076 57.9820848,53.1234913 57.9820848,52.7192699 L57.9820848,42.9602907 C57.9820848,42.5560692 58.309801,42.2283529 58.7145934,42.2283529 L66.2286592,42.2283529 C66.6328806,42.2283529 66.9605969,42.5560692 66.9605969,42.9602907 L66.9605969,52.9139585 C66.9605969,53.3187509 67.2888841,53.6464671 67.6931055,53.6464671 L76.1828979,53.6464671 C76.5876903,53.6464671 76.9154066,53.9747543 76.9154066,54.3789758 L76.9154066,56.8180069 C76.9154066,57.2222284 76.5876903,57.5505156 76.1828979,57.5505156 L75.1101125,57.5505156 C74.705891,57.5505156 74.3776038,57.8782318 74.3776038,58.2824533 L74.3776038,62.4782491 C74.3776038,62.8830415 74.705891,63.2107578 75.1101125,63.2107578 L76.1828979,63.2107578 C76.5876903,63.2107578 76.9154066,63.538474 76.9154066,63.9432664 L76.9154066,77.5075225 C76.9154066,77.9123149 76.5876903,78.2400311 76.1828979,78.2400311 L49.4517561,78.2400311 C49.1217561,78.2400311 48.8362889,78.0213633 48.7466522,77.7039239 L48.7466522,77.7039239 Z M36.9334516,24.6355848 C40.8700433,23.1020554 57.9415484,17.0661384 82.8765311,17.0501522 L82.8759602,17.0490104 C82.8930882,17.0490104 82.9096453,17.0495813 82.9267734,17.0495813 C82.9439014,17.0495813 82.9604585,17.0490104 82.9775865,17.0490104 L82.9798702,17.0501522 C107.913711,17.0667093 124.984074,23.1020554 128.920666,24.6355848 C129.247811,24.763474 129.246099,25.2202215 128.923521,25.3595294 L125.23186,26.9490104 C125.149074,26.9844083 125.05487,26.9895467 124.968088,26.9649965 C96.5327076,18.8308962 88.6937803,25.4097716 87.436583,26.7680242 C87.3709256,26.8388201 87.3395242,26.9307405 87.3395242,27.0272284 L87.3395242,58.9167612 L88.8821886,58.9167612 C89.0991436,58.9167612 89.2749913,59.092609 89.2749913,59.309564 L89.2749913,61.4517093 C89.2749913,61.6680934 89.0991436,61.8445121 88.8821886,61.8445121 L87.3395242,61.8445121 L87.3395242,109.707073 C87.3395242,109.924599 87.1636765,110.100446 86.9467215,110.100446 L79.0090225,110.100446 C78.7920675,110.100446 78.6156488,109.924599 78.6156488,109.707073 L78.6156488,61.8445121 L76.9342474,61.8445121 C76.7172924,61.8445121 76.5408737,61.6680934 76.5408737,61.4517093 L76.5408737,59.309564 C76.5408737,59.092609 76.7172924,58.9167612 76.9342474,58.9167612 L78.6156488,58.9167612 L78.6156488,27.1408443 C78.6156488,27.0454983 78.5836765,26.9575744 78.5220156,26.8850657 C77.6433478,25.8482491 70.2291955,18.5711211 40.8854585,26.9649965 C40.7992474,26.9895467 40.7044723,26.9844083 40.6222578,26.9490104 L36.9305969,25.3595294 C36.6074481,25.2202215 36.6057353,24.763474 36.9334516,24.6355848 L36.9334516,24.6355848 Z M77.3367561,13.3430761 C77.3367561,13.1261211 77.5126038,12.9502734 77.7295588,12.9502734 L87.4839706,12.9502734 C87.7009256,12.9502734 87.8767734,13.1261211 87.8767734,13.3430761 L87.8767734,15.4852215 C87.8767734,15.7021765 87.7009256,15.8780242 87.4839706,15.8780242 L77.7295588,15.8780242 C77.5126038,15.8780242 77.3367561,15.7021765 77.3367561,15.4852215 L77.3367561,13.3430761 Z M143.973348,33.1522111 L144.560268,33.1522111 L139.787258,37.8258789 C139.652517,37.9577647 139.472102,38.0314152 139.283694,38.0314152 L132.981151,38.0314152 C132.584351,38.0314152 132.261773,38.3534221 132.261773,38.7507924 L132.261773,55.4643218 C132.261773,55.861692 131.939766,56.183699 131.542967,56.183699 L127.125649,56.183699 C126.728279,56.183699 126.406272,55.861692 126.406272,55.4648927 L126.406272,38.7507924 C126.406272,38.3534221 126.084265,38.0314152 125.687465,38.0314152 L110.53487,38.0314152 C110.1375,38.0314152 109.815493,38.3534221 109.815493,38.7507924 L109.815493,47.985654 C109.815493,48.3424879 110.084403,48.636519 110.43667,48.6936125 C116.050666,49.6036817 117.941029,53.5688201 118.256185,54.3344429 C118.291012,54.4189412 118.306427,54.5068651 118.306427,54.5982145 L118.306427,55.5693737 C118.306427,55.8782491 118.100891,56.148872 117.807431,56.2453599 C102.178106,61.3603599 99.9720156,75.4458789 99.7008218,77.9534221 C99.6768426,78.1755156 99.4884343,78.3376609 99.265199,78.3376609 L89.6877768,78.3376609 C89.3709083,78.3376609 89.1139879,78.0807405 89.1139879,77.763872 L89.1254066,63.9541142 C89.1254066,63.5573149 89.4474135,63.235308 89.8442128,63.235308 L91.0660121,63.235308 C91.4633824,63.235308 91.7853893,62.913301 91.7853893,62.5165017 L91.7853893,58.2693218 C91.7853893,57.8719516 91.4633824,57.5505156 91.0660121,57.5505156 L89.8447837,57.5505156 C89.4479844,57.5505156 89.1259775,57.2285087 89.1259775,56.8311384 L89.1259775,54.463474 C89.1259775,54.0661038 89.4479844,53.7440969 89.8453547,53.7440969 L94.4196799,53.7440969 C94.6503374,53.7440969 94.8644377,53.6259135 94.9986073,53.4386471 C97.6962716,49.6773322 101.469576,48.8825917 102.944299,48.714737 C103.303988,48.6736298 103.569472,48.3641834 103.569472,48.0022111 L103.569472,33.8710173 C103.569472,33.474218 103.891479,33.1522111 104.288849,33.1522111 L143.973348,33.1522111 Z M82.3415657,0.317211073 C36.8655104,0.317211073 0.000285467128,37.1830069 0.000285467128,82.6584913 C0.000285467128,128.134547 36.8655104,164.999772 82.3415657,164.999772 C127.81705,164.999772 164.682846,128.134547 164.682846,82.6584913 C164.682846,37.1830069 127.81705,0.317211073 82.3415657,0.317211073 L82.3415657,0.317211073 Z" id="Fill-3" fill="#21B7F1" mask="url(#mask-2)"></path>
                </g>
            </g>
        </g>
    </g>
</svg>