<?xml version="1.0" encoding="UTF-8"?>
<svg width="37px" height="36px" viewBox="0 0 37 36" version="1.1" xmlns="http://www.w3.org/2000/svg" xmlns:xlink="http://www.w3.org/1999/xlink">
    <!-- Generator: Sketch 3.8.1 (29687) - http://www.bohemiancoding.com/sketch -->
    <title>Innovative</title>
    <desc>Created with Sketch.</desc>
    <defs></defs>
    <g id="Welcome" stroke="none" stroke-width="1" fill="none" fill-rule="evenodd">
        <g id="RP-Website" transform="translate(-350.000000, -1451.000000)">
            <g id="Quality" transform="translate(237.000000, 1366.000000)">
                <g id="Innovative" transform="translate(113.000000, 85.000000)">
                    <rect id="Rectangle-84" fill="#0093D0" style="mix-blend-mode: multiply;" x="0" y="0" width="37" height="36" rx="2"></rect>
                    <g id="rocket-icon" stroke-width="1" transform="translate(12.000000, 8.000000)" fill="#FFFFFF">
                        <g id="Capa_1">
                            <g id="Group">
                                <path d="M7.06815789,0 C7.06815789,0 3.35705263,2.94943396 3.35705263,10.194717 C3.35705263,14.8415094 4.72905263,17.7475472 6.51552632,18.2437736 L6.51552632,13.5664151 C6.51552632,13.2539623 6.76273684,13.0003774 7.06815789,13.0003774 C7.37357895,13.0003774 7.62078947,13.2539623 7.62078947,13.5664151 L7.62078947,18.2437736 C9.40726316,17.7475472 10.7788947,14.8415094 10.7788947,10.194717 C10.7788947,2.86566038 7.06815789,0 7.06815789,0 L7.06815789,0 Z M7.02431579,5.59169811 C6.38731579,5.59169811 5.76505263,5.53320755 5.21389474,5.42641509 C5.75363158,3.64490566 6.51478947,2.44490566 7.07478947,1.74301887 C7.63331579,2.43622642 8.39042105,3.62566038 8.92647368,5.4090566 C8.35468421,5.52754717 7.69852632,5.59169811 7.02431579,5.59169811 L7.02431579,5.59169811 Z" id="Shape"></path>
                                <path d="M2.36084211,13.3977358 C1.253,13.3977358 0.355157895,14.1830189 0.355157895,15.1516981 L0.355157895,19.7622642 L3.98852632,17.0090566 C3.44952632,16.0671698 3.04684211,14.8441509 2.80921053,13.3977358 L2.36084211,13.3977358 L2.36084211,13.3977358 Z" id="Shape"></path>
                                <path d="M11.7747368,13.3977358 L11.3267368,13.3977358 C11.0887368,14.8441509 10.6864211,16.0671698 10.1474211,17.0090566 L13.7807895,19.7622642 L13.7807895,15.1516981 C13.7807895,14.1830189 12.8829474,13.3977358 11.7747368,13.3977358 L11.7747368,13.3977358 Z" id="Shape"></path>
                            </g>
                        </g>
                    </g>
                </g>
            </g>
        </g>
    </g>
</svg>