<?xml version="1.0" encoding="utf-8"?>
<!-- Generator: Adobe Illustrator 18.0.0, SVG Export Plug-In . SVG Version: 6.00 Build 0)  -->
<!DOCTYPE svg PUBLIC "-//W3C//DTD SVG 1.1//EN" "http://www.w3.org/Graphics/SVG/1.1/DTD/svg11.dtd">
<svg version="1.1" id="Capa_1" xmlns="http://www.w3.org/2000/svg" xmlns:xlink="http://www.w3.org/1999/xlink" x="0px" y="0px"
	 viewBox="0 0 512 512" enable-background="new 0 0 512 512" xml:space="preserve">
<path fill="#2C3135" d="M256,106.5c27.7,0,50.3,22.6,50.3,50.3s-22.6,50.3-50.3,50.3c-27.7,0-50.3-22.6-50.3-50.3
	S228.3,106.5,256,106.5z M227.7,156.8c0,15.6,12.7,28.3,28.3,28.3c15.6,0,28.3-12.7,28.3-28.3s-12.7-28.3-28.3-28.3
	C240.4,128.5,227.7,141.2,227.7,156.8z M114.5,425.1c0,0.2,0,0.4,0,0.6c0,0.2,0,0.4,0.1,0.6c0,0.2,0,0.3,0.1,0.5
	c0,0.2,0.1,0.4,0.1,0.6c0,0.1,0.1,0.3,0.1,0.4c0.1,0.2,0.1,0.5,0.2,0.7c0,0.1,0.1,0.2,0.1,0.3c0.1,0.2,0.2,0.4,0.3,0.7
	c0,0.1,0.1,0.2,0.1,0.3c0.1,0.2,0.2,0.4,0.3,0.6c0.1,0.1,0.1,0.2,0.2,0.3c0.1,0.2,0.2,0.4,0.4,0.5c0.1,0.1,0.2,0.2,0.3,0.4
	c0.1,0.1,0.2,0.3,0.4,0.4c0.1,0.1,0.2,0.3,0.3,0.4c0.1,0.1,0.2,0.2,0.4,0.4c0.1,0.1,0.3,0.3,0.4,0.4c0.1,0.1,0.3,0.2,0.4,0.3
	c0.1,0.1,0.3,0.2,0.4,0.3c0.2,0.1,0.3,0.2,0.5,0.3c0.1,0.1,0.3,0.2,0.4,0.3c0.2,0.1,0.4,0.2,0.6,0.3c0.1,0.1,0.2,0.1,0.4,0.2
	c0.2,0.1,0.5,0.2,0.7,0.3c0.1,0,0.2,0.1,0.2,0.1c0,0,0.1,0,0.1,0c0.2,0.1,0.3,0.1,0.5,0.1c0.2,0,0.3,0.1,0.5,0.1
	c0.1,0,0.3,0.1,0.4,0.1c0.2,0,0.5,0.1,0.7,0.1c0.1,0,0.2,0,0.3,0c0.4,0,0.7,0.1,1.1,0.1c0,0,0,0,0,0H256c0,0,0,0,0,0s0,0,0,0h130.4
	c0,0,0,0,0,0c0.3,0,0.7,0,1.1-0.1c0.1,0,0.2,0,0.3,0c0.2,0,0.5-0.1,0.7-0.1c0.2,0,0.3-0.1,0.4-0.1c0.2,0,0.3-0.1,0.5-0.1
	c0.2,0,0.4-0.1,0.5-0.2c0,0,0.1,0,0.1,0c0.1,0,0.1-0.1,0.2-0.1c0.2-0.1,0.5-0.2,0.7-0.3c0.1-0.1,0.2-0.1,0.3-0.2
	c0.2-0.1,0.4-0.2,0.6-0.3c0.1-0.1,0.3-0.2,0.4-0.2c0.2-0.1,0.3-0.2,0.5-0.3c0.1-0.1,0.3-0.2,0.4-0.3c0.2-0.1,0.3-0.2,0.4-0.4
	c0.1-0.1,0.2-0.2,0.4-0.3c0.1-0.1,0.3-0.3,0.4-0.4c0.1-0.1,0.2-0.2,0.3-0.3c0.1-0.2,0.3-0.3,0.4-0.5c0.1-0.1,0.2-0.2,0.2-0.3
	c0.1-0.2,0.3-0.4,0.4-0.6c0.1-0.1,0.1-0.2,0.2-0.3c0.1-0.2,0.3-0.4,0.4-0.7c0-0.1,0.1-0.2,0.1-0.2c0.1-0.2,0.2-0.5,0.3-0.7
	c0-0.1,0.1-0.2,0.1-0.2c0.1-0.2,0.2-0.5,0.2-0.8c0-0.1,0.1-0.2,0.1-0.3c0.1-0.2,0.1-0.5,0.2-0.7c0-0.1,0-0.3,0.1-0.4
	c0-0.2,0.1-0.4,0.1-0.7c0-0.2,0-0.3,0-0.5c0-0.1,0-0.3,0-0.4c0-0.1,0-0.1,0-0.2c0-0.2,0-0.3,0-0.5c0-0.2,0-0.4-0.1-0.7
	c0-0.1,0-0.2-0.1-0.3c0-0.3-0.1-0.5-0.1-0.8c0-0.1,0-0.1-0.1-0.2c-0.1-0.3-0.2-0.6-0.3-0.9c0,0,0,0,0-0.1l-12.6-36.4
	c0-0.1-0.1-0.2-0.1-0.3c-0.1-0.2-0.2-0.4-0.3-0.6c-0.1-0.1-0.1-0.3-0.2-0.4c-0.1-0.2-0.2-0.4-0.3-0.5c-0.1-0.2-0.2-0.3-0.3-0.5
	c-0.1-0.1-0.2-0.3-0.3-0.4c-0.1-0.2-0.2-0.3-0.4-0.5c-0.1-0.1-0.2-0.2-0.3-0.4c-0.1-0.2-0.3-0.3-0.4-0.4c-0.1-0.1-0.2-0.2-0.3-0.3
	c-0.1-0.1-0.3-0.3-0.4-0.4c-0.1-0.1-0.3-0.2-0.4-0.3c-0.1-0.1-0.3-0.2-0.4-0.3c-0.2-0.1-0.3-0.2-0.5-0.3c-0.1-0.1-0.2-0.1-0.4-0.2
	c-0.2-0.1-0.4-0.2-0.6-0.3c-0.1-0.1-0.2-0.1-0.3-0.2c-0.2-0.1-0.4-0.2-0.7-0.3c-0.1,0-0.2-0.1-0.3-0.1c-0.2-0.1-0.4-0.1-0.7-0.2
	c-0.1,0-0.3-0.1-0.4-0.1c-0.2,0-0.4-0.1-0.6-0.1c-0.2,0-0.3-0.1-0.5-0.1c-0.2,0-0.4,0-0.5-0.1c-0.2,0-0.4,0-0.6,0
	c-0.1,0-0.2,0-0.3,0h-71.6c-6.1,0-11,4.9-11,11c0,6.1,4.9,11,11,11h63.7l5,14.4H267v-129c0-6.1-4.9-11-11-11c-6.1,0-11,4.9-11,11
	v129H140.9l5-14.4h63.7c6.1,0,11-4.9,11-11c0-6.1-4.9-11-11-11h-71.6c-0.1,0-0.2,0-0.3,0c-0.2,0-0.4,0-0.6,0c-0.2,0-0.3,0-0.5,0.1
	c-0.2,0-0.3,0-0.5,0.1c-0.2,0-0.4,0.1-0.6,0.1c-0.1,0-0.3,0.1-0.4,0.1c-0.2,0.1-0.4,0.1-0.6,0.2c-0.1,0-0.2,0.1-0.4,0.1
	c-0.2,0.1-0.4,0.2-0.6,0.3c-0.1,0.1-0.2,0.1-0.4,0.2c-0.2,0.1-0.4,0.2-0.5,0.3c-0.1,0.1-0.3,0.2-0.4,0.2c-0.2,0.1-0.3,0.2-0.5,0.3
	c-0.1,0.1-0.3,0.2-0.4,0.3c-0.1,0.1-0.2,0.2-0.4,0.3c-0.2,0.1-0.3,0.3-0.5,0.4c-0.1,0.1-0.2,0.2-0.3,0.3c-0.1,0.2-0.3,0.3-0.4,0.5
	c-0.1,0.1-0.2,0.2-0.3,0.3c-0.1,0.2-0.3,0.3-0.4,0.5c-0.1,0.1-0.2,0.3-0.3,0.4c-0.1,0.2-0.2,0.3-0.3,0.5c-0.1,0.2-0.2,0.3-0.3,0.5
	c-0.1,0.1-0.1,0.3-0.2,0.4c-0.1,0.2-0.2,0.4-0.3,0.6c0,0.1-0.1,0.2-0.1,0.3l-12.6,36.4c0,0,0,0.1,0,0.1c-0.1,0.2-0.2,0.5-0.2,0.8
	c0,0.1-0.1,0.2-0.1,0.3c0,0.2-0.1,0.4-0.1,0.7c0,0.2-0.1,0.3-0.1,0.5c0,0.2,0,0.4,0,0.5c0,0.2,0,0.4,0,0.6c0,0.1,0,0.1,0,0.2
	C114.5,424.9,114.5,425,114.5,425.1z M211.6,253.6C211.6,253.6,211.7,253.6,211.6,253.6c0.3,0.4,0.6,0.7,0.8,1c0,0,0.1,0.1,0.1,0.1
	c0.2,0.2,0.5,0.4,0.7,0.6c0.1,0.1,0.3,0.2,0.4,0.3c0.2,0.1,0.4,0.3,0.6,0.4c0.1,0.1,0.3,0.2,0.4,0.3c0.2,0.1,0.4,0.2,0.6,0.3
	c0.1,0.1,0.3,0.1,0.4,0.2c0.2,0.1,0.5,0.2,0.7,0.3c0.1,0,0.2,0.1,0.4,0.1c0.3,0.1,0.5,0.2,0.8,0.2c0.1,0,0.2,0.1,0.3,0.1
	c0.3,0.1,0.6,0.1,1,0.2c0.1,0,0.1,0,0.2,0c0.4,0,0.8,0.1,1.2,0.1h71.5c0.4,0,0.8,0,1.2-0.1c0.1,0,0.1,0,0.2,0c0.3,0,0.6-0.1,1-0.2
	c0.1,0,0.2-0.1,0.3-0.1c0.3-0.1,0.6-0.1,0.8-0.2c0.1,0,0.2-0.1,0.4-0.1c0.2-0.1,0.5-0.2,0.7-0.3c0.1-0.1,0.3-0.1,0.4-0.2
	c0.2-0.1,0.4-0.2,0.6-0.3c0.1-0.1,0.3-0.2,0.4-0.3c0.2-0.1,0.4-0.3,0.6-0.4c0.1-0.1,0.3-0.2,0.4-0.3c0.3-0.2,0.5-0.4,0.7-0.7
	c0,0,0.1-0.1,0.1-0.1c0.3-0.3,0.5-0.6,0.8-0.9c0,0,0,0,0.1-0.1l77.8-98.2c3.7-4.7,3-11.4-1.6-15.3l-91.4-76.4l-0.1-24.8
	c0-6.1-4.9-11-11-11c0,0,0,0,0,0c-6.1,0-11,4.9-11,11l0.1,29.9c0,0.1,0,0.2,0,0.4c0,0.2,0,0.4,0,0.7c0,0.2,0,0.4,0.1,0.5
	c0,0.2,0,0.3,0.1,0.5c0,0.2,0.1,0.4,0.1,0.6c0,0.2,0.1,0.3,0.1,0.5c0.1,0.2,0.1,0.4,0.2,0.6c0.1,0.2,0.1,0.3,0.2,0.4
	c0.1,0.2,0.2,0.3,0.2,0.5c0.1,0.2,0.1,0.3,0.2,0.5c0.1,0.2,0.2,0.3,0.3,0.4c0.1,0.2,0.2,0.3,0.3,0.5c0.1,0.1,0.2,0.3,0.3,0.4
	c0.1,0.2,0.2,0.3,0.3,0.5c0.1,0.1,0.2,0.3,0.4,0.4c0.1,0.1,0.2,0.3,0.3,0.4c0.2,0.2,0.3,0.3,0.5,0.5c0.1,0.1,0.2,0.2,0.2,0.2
	l0.1,0.1c0,0,0,0,0,0l87,72.8l-67.8,85.6h-60.9l-67.8-85.6l87-72.7c0,0,0,0,0,0l0,0c0.1-0.1,0.1-0.1,0.2-0.2
	c0.2-0.2,0.4-0.4,0.6-0.6c0.1-0.1,0.2-0.2,0.3-0.3c0.1-0.2,0.3-0.3,0.4-0.5c0.1-0.1,0.2-0.3,0.3-0.4c0.1-0.2,0.2-0.3,0.3-0.5
	c0.1-0.1,0.2-0.3,0.2-0.4c0.1-0.2,0.2-0.3,0.3-0.5c0.1-0.1,0.1-0.3,0.2-0.4c0.1-0.2,0.2-0.4,0.3-0.6c0-0.1,0.1-0.2,0.1-0.3
	c0.1-0.2,0.2-0.4,0.2-0.7c0-0.1,0.1-0.2,0.1-0.3c0.1-0.2,0.1-0.5,0.2-0.7c0-0.1,0-0.2,0.1-0.4c0-0.2,0.1-0.5,0.1-0.7
	c0-0.1,0-0.3,0-0.4c0-0.2,0-0.4,0-0.6l0.1-29.9c0-6.1-4.9-11-11-11c0,0,0,0,0,0c-6.1,0-11,4.9-11,11l-0.1,24.8l-91.4,76.4
	c-4.6,3.8-5.3,10.6-1.6,15.3L211.6,253.6z"/>
</svg>
