<?xml version="1.0" encoding="UTF-8"?>
<svg width="37px" height="36px" viewBox="0 0 37 36" version="1.1" xmlns="http://www.w3.org/2000/svg" xmlns:xlink="http://www.w3.org/1999/xlink">
    <!-- Generator: Sketch 3.8.1 (29687) - http://www.bohemiancoding.com/sketch -->
    <title>Professional</title>
    <desc>Created with Sketch.</desc>
    <defs></defs>
    <g id="Welcome" stroke="none" stroke-width="1" fill="none" fill-rule="evenodd">
        <g id="RP-Website" transform="translate(-494.000000, -1451.000000)">
            <g id="Quality" transform="translate(237.000000, 1366.000000)">
                <g id="Professional" transform="translate(257.000000, 85.000000)">
                    <rect id="Rectangle-84-Copy" fill="#0093D0" x="0" y="0" width="37" height="36" rx="2"></rect>
                    <g id="manager" stroke-width="1" transform="translate(12.000000, 8.000000)" fill="#FFFFFF">
                        <g id="Group">
                            <path d="M7.00061135,7.104 C8.97632314,7.104 10.5836332,5.51060606 10.5836332,3.552 C10.5836332,1.59339394 8.97632314,0 7.00061135,0 C5.02489956,0 3.41758952,1.59339394 3.41758952,3.552 C3.41758952,5.51060606 5.02489956,7.104 7.00061135,7.104 L7.00061135,7.104 Z" id="Shape"></path>
                            <path d="M11.8085415,8.82533333 C11.8070131,8.82484848 11.8040786,8.82375758 11.8025502,8.82339394 C11.3360262,8.71042424 9.90741485,8.51230303 9.90741485,8.51230303 C9.74613974,8.46309091 9.57379913,8.54775758 9.51578166,8.70551515 L7.36540611,14.5545455 C7.24136245,14.8919394 6.75998253,14.8919394 6.63593886,14.5545455 L4.48556332,8.70551515 C4.43873362,8.57812121 4.31744105,8.49824242 4.18746725,8.49824242 C4.15665502,8.49824242 2.68775546,8.70242424 2.19873362,8.8229697 C0.862436681,9.15236364 0.0195633188,10.4550303 0.0195633188,11.8126061 L0.0195633188,16.6793939 C0.0195633188,17.4087273 0.616,18 1.35170306,18 L12.6484192,18 C13.3841223,18 13.980559,17.4087273 13.980559,16.6793939 L13.980559,11.7964242 C13.9804978,10.4447273 13.1046114,9.24515152 11.8085415,8.82533333 L11.8085415,8.82533333 Z" id="Shape"></path>
                            <path d="M7.81157205,8.40078788 C7.72573799,8.30806061 7.60028821,8.26145455 7.47337118,8.26145455 L6.52668996,8.26145455 C6.39977293,8.26145455 6.27426201,8.30812121 6.18848908,8.40078788 C6.05564192,8.54430303 6.03632314,8.75163636 6.13065502,8.91363636 L6.63673362,9.66993939 L6.39983406,11.6511515 L6.86635808,12.8814545 C6.91184279,13.0052121 7.08834061,13.0052121 7.13382533,12.8814545 L7.60034934,11.6511515 L7.36344978,9.66993939 L7.86952838,8.91363636 C7.96373799,8.75163636 7.94441921,8.54430303 7.81157205,8.40078788 L7.81157205,8.40078788 Z" id="Shape"></path>
                        </g>
                    </g>
                </g>
            </g>
        </g>
    </g>
</svg>