<?xml version="1.0" encoding="utf-8"?>
<!-- Generator: Adobe Illustrator 18.0.0, SVG Export Plug-In . SVG Version: 6.00 Build 0)  -->
<!DOCTYPE svg PUBLIC "-//W3C//DTD SVG 1.1//EN" "http://www.w3.org/Graphics/SVG/1.1/DTD/svg11.dtd">
<svg version="1.1" id="Layer_1" xmlns="http://www.w3.org/2000/svg" xmlns:xlink="http://www.w3.org/1999/xlink" x="0px" y="0px"
	 viewBox="0 0 600 600" enable-background="new 0 0 600 600" xml:space="preserve">
<g>
	<path fill="#007B3E" d="M4.6,0c0,0,401.1,41.3,595.4,494.5V0H4.6z"/>
	<path fill="#CACAC9" d="M4.6,0c0,0,409,11.6,595.4,487.6V0H4.6z"/>
	<path fill-rule="evenodd" clip-rule="evenodd" fill="#7B7978" d="M599.9,482.1v-95.7V221.8l0.1-26.2v-36.4l-7.8-3.9l-7.7-3.9
		l-7.6-4.1l-7.5-4.1l-7.4-4.2l-7.3-4.3l-7.2-4.3l-6.8-4.2L511.9,0H47.5C313.7,35.5,530.1,228.4,599.9,482.1z"/>
	<path fill-rule="evenodd" clip-rule="evenodd" fill="#FFFFFF" d="M285.9,0h-12.7l-0.1,0.1l39.2,30.3l4.9-6.2L285.9,0z M599.9,242.3
		l-13.2-10.2l-4.9,6.2l18.1,13.9l0.1,0.1L599.9,242.3L599.9,242.3z M336,38.7l-4.9,6.2L362.5,69l4.8-6.2L336,38.7z M386.1,77.3
		l-4.8,6.2l31.3,24.2l4.9-6.2L386.1,77.3z M436.3,116l-4.9,6.2l31.3,24.2l4.9-6.2L436.3,116z M486.4,154.7l-4.8,6.2l31.3,24.2
		l4.8-6.2L486.4,154.7z M536.5,193.4l-4.8,6.1l31.3,24.2l4.9-6.2L536.5,193.4z"/>
	<g>
		<polygon fill-rule="evenodd" clip-rule="evenodd" fill="#007B3E" points="600,0 600,163.4 592.2,159.5 584.4,155.5 576.9,151.5 
			569.3,147.3 561.9,143.1 554.5,138.7 547.2,134.3 540,129.9 532.9,125.2 526,120.6 519.1,115.9 512.3,111.1 505.6,106.2 
			499.1,101.3 492.5,96.3 486.2,91.2 479.9,86 473.8,80.8 467.8,75.5 461.9,70 456,64.6 450.3,59.1 444.7,53.5 439.2,47.8 433.8,42 
			428.6,36.3 423.5,30.4 418.5,24.4 413.7,18.5 408.9,12.4 404.2,6.2 399.8,0 		"/>
	</g>
	<polygon fill-rule="evenodd" clip-rule="evenodd" fill="#CACAC9" points="600,155 600,163.4 592.2,159.5 584.4,155.5 576.9,151.5 
		569.3,147.3 561.9,143.1 554.5,138.7 547.2,134.3 540,129.9 532.9,125.2 526,120.6 519.1,115.9 512.3,111.1 505.6,106.2 
		499.1,101.3 492.5,96.3 486.2,91.2 479.9,86 473.8,80.8 467.8,75.5 461.9,70 456,64.6 450.3,59.1 444.7,53.5 439.2,47.8 433.8,42 
		428.6,36.3 423.5,30.4 418.5,24.4 413.7,18.5 408.9,12.4 404.2,6.2 399.8,0 423.1,0 424.1,1.6 428.5,7.8 433,13.8 437.5,19.8 
		442.2,25.8 447,31.6 451.9,37.4 457,43.2 462.2,48.9 467.5,54.6 472.9,60.1 478.5,65.6 484.1,71 489.8,76.4 495.6,81.7 501.6,86.9 
		507.6,92 513.9,97.2 520.1,102.2 526.5,107.1 533,112 539.6,116.8 546.2,121.5 553,126.2 559.9,130.8 566.9,135.3 573.9,139.7 
		581,144.1 588.3,148.4 595.6,152.6 	"/>
</g>
</svg>
