<?xml version="1.0" encoding="UTF-8"?>
<svg width="30px" height="2px" viewBox="0 0 30 2" version="1.1" xmlns="http://www.w3.org/2000/svg" xmlns:xlink="http://www.w3.org/1999/xlink">
    <!-- Generator: Sketch 3.8.1 (29687) - http://www.bohemiancoding.com/sketch -->
    <title>........</title>
    <desc>Created with Sketch.</desc>
    <defs></defs>
    <g id="Welcome" stroke="none" stroke-width="1" fill="none" fill-rule="evenodd">
        <g id="RP-Website" transform="translate(-570.000000, -1468.000000)" fill="#0091CD">
            <g id="Quality" transform="translate(237.000000, 1366.000000)">
                <path d="M334.665359,103 C334.665359,103.268658 334.590792,103.502487 334.441654,103.701493 C334.292517,103.900499 334.089527,104 333.83268,104 C333.575832,104 333.372842,103.900499 333.223705,103.701493 C333.074568,103.502487 333,103.268658 333,103 C333,102.731342 333.074568,102.497513 333.223705,102.298507 C333.372842,102.099501 333.575832,102 333.83268,102 C334.089527,102 334.292517,102.099501 334.441654,102.298507 C334.590792,102.497513 334.665359,102.731342 334.665359,103 L334.665359,103 Z M338.613741,103 C338.613741,103.268658 338.539173,103.502487 338.390036,103.701493 C338.240898,103.900499 338.037909,104 337.781061,104 C337.524213,104 337.321224,103.900499 337.172086,103.701493 C337.022949,103.502487 336.948381,103.268658 336.948381,103 C336.948381,102.731342 337.022949,102.497513 337.172086,102.298507 C337.321224,102.099501 337.524213,102 337.781061,102 C338.037909,102 338.240898,102.099501 338.390036,102.298507 C338.539173,102.497513 338.613741,102.731342 338.613741,103 L338.613741,103 Z M342.562122,103 C342.562122,103.268658 342.487554,103.502487 342.338417,103.701493 C342.18928,103.900499 341.98629,104 341.729442,104 C341.472595,104 341.269605,103.900499 341.120468,103.701493 C340.97133,103.502487 340.896763,103.268658 340.896763,103 C340.896763,102.731342 340.97133,102.497513 341.120468,102.298507 C341.269605,102.099501 341.472595,102 341.729442,102 C341.98629,102 342.18928,102.099501 342.338417,102.298507 C342.487554,102.497513 342.562122,102.731342 342.562122,103 L342.562122,103 Z M346.510503,103 C346.510503,103.268658 346.435936,103.502487 346.286798,103.701493 C346.137661,103.900499 345.934672,104 345.677824,104 C345.420976,104 345.217987,103.900499 345.068849,103.701493 C344.919712,103.502487 344.845144,103.268658 344.845144,103 C344.845144,102.731342 344.919712,102.497513 345.068849,102.298507 C345.217987,102.099501 345.420976,102 345.677824,102 C345.934672,102 346.137661,102.099501 346.286798,102.298507 C346.435936,102.497513 346.510503,102.731342 346.510503,103 L346.510503,103 Z M350.458885,103 C350.458885,103.268658 350.384317,103.502487 350.23518,103.701493 C350.086042,103.900499 349.883053,104 349.626205,104 C349.369357,104 349.166368,103.900499 349.017231,103.701493 C348.868093,103.502487 348.793526,103.268658 348.793526,103 C348.793526,102.731342 348.868093,102.497513 349.017231,102.298507 C349.166368,102.099501 349.369357,102 349.626205,102 C349.883053,102 350.086042,102.099501 350.23518,102.298507 C350.384317,102.497513 350.458885,102.731342 350.458885,103 L350.458885,103 Z M354.407266,103 C354.407266,103.268658 354.332699,103.502487 354.183561,103.701493 C354.034424,103.900499 353.831434,104 353.574587,104 C353.317739,104 353.114749,103.900499 352.965612,103.701493 C352.816475,103.502487 352.741907,103.268658 352.741907,103 C352.741907,102.731342 352.816475,102.497513 352.965612,102.298507 C353.114749,102.099501 353.317739,102 353.574587,102 C353.831434,102 354.034424,102.099501 354.183561,102.298507 C354.332699,102.497513 354.407266,102.731342 354.407266,103 L354.407266,103 Z M358.355648,103 C358.355648,103.268658 358.28108,103.502487 358.131943,103.701493 C357.982805,103.900499 357.779816,104 357.522968,104 C357.26612,104 357.063131,103.900499 356.913993,103.701493 C356.764856,103.502487 356.690288,103.268658 356.690288,103 C356.690288,102.731342 356.764856,102.497513 356.913993,102.298507 C357.063131,102.099501 357.26612,102 357.522968,102 C357.779816,102 357.982805,102.099501 358.131943,102.298507 C358.28108,102.497513 358.355648,102.731342 358.355648,103 L358.355648,103 Z M362.304029,103 C362.304029,103.268658 362.229461,103.502487 362.080324,103.701493 C361.931187,103.900499 361.728197,104 361.471349,104 C361.214502,104 361.011512,103.900499 360.862375,103.701493 C360.713237,103.502487 360.63867,103.268658 360.63867,103 C360.63867,102.731342 360.713237,102.497513 360.862375,102.298507 C361.011512,102.099501 361.214502,102 361.471349,102 C361.728197,102 361.931187,102.099501 362.080324,102.298507 C362.229461,102.497513 362.304029,102.731342 362.304029,103 L362.304029,103 Z" id="........"></path>
            </g>
        </g>
    </g>
</svg>